
<svg xmlns="http://www.w3.org/2000/svg" width="134" height="25" fill="none" viewBox="0 0 134 25">
  <path d="M111.35.58a5.4 5.4 0 0 1 7.53 3.03 1 1 0 1 1-1.89.66 3.4 3.4 0 1 0-2.66 4.49 1 1 0 0 1 .32 1.97 5.4 5.4 0 0 1-3.3-10.15Z"/>
  <path fill-rule="evenodd" d="M74.91 12.84c.1.18.22.34.36.48-.15 1-.25 2.23-.19 3.38.05.78.17 1.59.44 2.28a3.02 3.02 0 0 0 2.18 1.98l.02.03c.58.68 1.6 1.61 2.82 2.21 1.22.6 2.82.94 4.35.1l.04-.03c.6-.36.84-.96.83-1.54 0-.5-.2-.99-.4-1.37-.23-.45-.55-.9-.86-1.28.58-.73 1-1.94.82-3.6.37-.12.75-.34 1.09-.68.44-.45.6-.54 1.1-.82.24-.13.56-.3 1.02-.59a2.4 2.4 0 0 0 1.16-1.6c1.34.1 2.37-.21 3.07-.67.36.3.77.59 1.18.81.38.2.87.4 1.37.42a1.7 1.7 0 0 0 1.57-.88 4.7 4.7 0 0 0-.08-4.37 9.3 9.3 0 0 0-1.86-2.56 4.3 4.3 0 0 0-.33-1.15 3.01 3.01 0 0 0-1.75-1.52c-.7-.27-1.5-.38-2.28-.42-1.2-.05-2.49.08-3.5.26a2.32 2.32 0 0 0-1.42-.7 3.36 3.36 0 0 0-1.94.48c-2.12.88-4.08 2.61-5.59 4.26a21.95 21.95 0 0 0-3.12 4.26c-.47.97-.58 1.99-.1 2.83ZM85.46 3c-.1 0-.35 0-.82.27a1 1 0 0 1-.11.05c-1.73.7-3.48 2.2-4.92 3.78a20.2 20.2 0 0 0-2.8 3.8c-.15.29-.2.5-.2.65h.02a1 1 0 0 1 .67.51c.36.01.84.1 1.32.19.55.1 1.2.26 1.87.42 1.28.32 2.65.7 3.56.95a1 1 0 0 1 .37.04 1.13 1.13 0 0 0 .09-.02.9.9 0 0 0 .48-.25 6.5 6.5 0 0 1 1.71-1.25c.23-.13.5-.27.8-.46a.52.52 0 0 0 .2-.19.56.56 0 0 0 .06-.23 1 1 0 0 0 0-.13 1 1 0 0 1-.14-.52 1 1 0 0 1-.06-.17L86 4.2a3.3 3.3 0 0 0-.1-.53 1 1 0 0 1-.42-.66h-.03Zm-8.38 13.6c-.04-.84.01-1.74.11-2.54.15 0 .5.04 1.04.15.51.1 1.13.24 1.79.4 1.16.29 2.4.63 3.29.88.11.77.04 1.34-.08 1.73a1.99 1.99 0 0 1-.36.69 10.39 10.39 0 0 1-2.45 1 4.24 4.24 0 0 1-2.56 0c-.13-.06-.31-.23-.48-.65-.16-.42-.26-1-.3-1.67Zm14.1-6.93c-.39.13-.95.2-1.73.1l-1.48-6-.03-.17c.8-.11 1.71-.18 2.55-.15.67.03 1.24.13 1.65.29.42.16.58.34.65.48.09.2.15.42.18.67a1 1 0 0 0 .03.37c0 .46-.06.99-.19 1.55-.18.77-.46 1.5-.72 2.05a1 1 0 0 0-.4.57c-.12.08-.29.17-.51.24Zm3.53-2.23c-.2.78-.47 1.5-.73 2.1a5.77 5.77 0 0 0 1.24.77c.3-.7.18-1.5-.22-2.35a5.9 5.9 0 0 0-.29-.52Zm-13.8 13.4c.68-.17 1.34-.41 1.9-.66a6 6 0 0 1 .78 1.1c.08.16.12.27.15.36-.7.29-1.48.18-2.32-.24a6.16 6.16 0 0 1-.82-.49l.3-.07ZM51.8 1a5.4 5.4 0 0 0-5.26 4.18 3.8 3.8 0 0 0-4.77 4.73h-.4c-.35 0-.86.1-1.32.43-.5.37-.85.96-.85 1.76 0 2.6.86 4.87 1.93 6.5a8.85 8.85 0 0 0 1.76 1.98c.31.24.66.46 1.03.62v.41c0 .62.3 1.16.65 1.52.36.37.9.67 1.52.67h10.62c.62 0 1.16-.3 1.52-.67.36-.36.65-.9.65-1.52v-.39c.4-.15.77-.38 1.1-.64a8.06 8.06 0 0 0 1.77-2 12.08 12.08 0 0 0 1.85-6.48c0-.8-.35-1.4-.85-1.76a2.3 2.3 0 0 0-1.33-.43h-.07c.11-.26.22-.55.31-.84.32-1.04.52-2.31.22-3.58l-.18-.78h-.8c-1 0-2.4.14-3.83.53A5.4 5.4 0 0 0 51.8 1Zm8.4 10.92H41.31a.25.25 0 0 0-.08.04l-.01.01s-.02.04-.02.13a9.9 9.9 0 0 0 1.6 5.4c.45.67.92 1.18 1.34 1.5.45.36.72.42.78.42h1v2.21l.07.1a.34.34 0 0 0 .11.07h10.61a.34.34 0 0 0 .1-.08.35.35 0 0 0 .07-.12v-2.18h1c.13 0 .43-.08.87-.42.42-.32.88-.83 1.31-1.5a10.09 10.09 0 0 0 1.54-5.4c0-.1-.02-.13-.02-.13h-.01a.25.25 0 0 0-.08-.04l-.05-.01h-1.23ZM55.16 5.9c-1.72.76-3.39 2.02-4.14 4.01h-7.04l-.02-.03a1.8 1.8 0 0 1 2.49-2.54 1 1 0 0 0 1.08.05 1 1 0 0 0 .87-.99 3.4 3.4 0 0 1 6.76-.5Zm-1.9 4a498.03 498.03 0 0 1 5.87.01 7.05 7.05 0 0 0 .9-3.16c-1.16.1-2.61.36-3.93.92a6.03 6.03 0 0 0-2.85 2.23ZM14.38 4.37a1 1 0 0 1 .2.89l-.31 1.14a6.12 6.12 0 0 1 2.03.14l.42-1.58a1 1 0 0 1 1.13-.72c1.23.2 2.38.51 3.45.92a1 1 0 0 1 .6 1.2l-.3 1.13.15.05.03.01.82.28a8 8 0 0 1 .87.4l.11-.4a1 1 0 0 1 1.58-.53c2.48 1.92 4.04 4.53 4.04 7.27a6.8 6.8 0 0 1-1.06 3.93 6.4 6.4 0 0 1-3.08 2.3c-2.5.99-6.09 1.18-10.46 1.18-4.37 0-7.96-.2-10.46-1.17a6.4 6.4 0 0 1-3.08-2.31A6.8 6.8 0 0 1 0 14.57c0-3 1.87-5.85 4.78-7.8a1 1 0 0 1 1.53 1.08l-.07.24c.74-.31 1.57-.63 2.3-.83l.52-1.98a1 1 0 0 1 .73-.72c1.18-.3 2.44-.5 3.77-.56a1 1 0 0 1 .82.37Zm6.5 5.8.2-.74.09.02c.21.07.45.15.7.25.4.15.78.33 1.07.54l-.12.45a1 1 0 1 1-1.94-.52Zm-5.1-1.7c-.39-.1-.88-.11-1.4-.07l-.67.08-.03.1a1 1 0 0 0 1.94.51l.16-.62ZM6.4 11.4a1 1 0 0 1-.73-.84c.54-.27 1.41-.67 2.26-.99l-.3 1.12a1 1 0 0 1-1.23.71Zm4.45-5.03-1.3 4.84a3 3 0 0 1-5.9-.78A6.6 6.6 0 0 0 2 14.57c0 1.26.27 2.15.71 2.8a4.42 4.42 0 0 0 2.15 1.57c2.1.82 5.31 1.04 9.74 1.04 4.43 0 7.64-.22 9.74-1.04 1.01-.4 1.7-.91 2.15-1.57.44-.65.71-1.54.71-2.8 0-1.56-.72-3.21-2.1-4.65l-.35 1.29a3 3 0 1 1-5.8-1.55l.79-2.93a17.2 17.2 0 0 0-1.33-.35l-.86 3.23a3 3 0 1 1-5.8-1.55l.52-1.94c-.49.07-.96.15-1.43.25Zm102.81-.61a1 1 0 0 1 .9-.56h12.05l1.92-3.12a1 1 0 0 1 .54-.43l3.6-1.2a1 1 0 1 1 .63 1.9l-3.25 1.08-1.1 1.77h2.84a1 1 0 0 1 .79 1.61l-8.41 10.93v4.55h2.3a1 1 0 0 1 0 2h-6.6a1 1 0 1 1 0-2h2.3v-4.55l-8.4-10.93a1 1 0 0 1-.11-1.05Zm11.72 1.44h-8.8l1.35 1.75c2.3-.6 4-.19 5.44.17l.17.04.55.13 1.29-2.09Zm.95 2.28 1.4-2.28h2.02l-1.36 1.77a1 1 0 0 0-.43.08 6 6 0 0 1-1.63.43Zm-3.34 1.6-.86 1.4a1 1 0 0 0 1.7 1.04l1.27-2.04c.43.04.88.04 1.37 0l-3.3 4.28-3.88-5.05c1.37-.2 2.46.07 3.66.36l.04.01Z" clip-rule="evenodd"/>
</svg>