<svg xmlns="http://www.w3.org/2000/svg" width="520" height="108" fill="none">
  <path fill="#292929" d="M0 0h520v108H0z"/>
  <path stroke="#fff" stroke-linecap="round" stroke-linejoin="round" stroke-width="2.5" d="m44 35 4.7 10.5 11.5 1.2-8.5 7.8L54 65.8 44 60l-10 5.7 2.3-11.3-8.5-7.8 11.5-1.2L44 35Z"/>
  <path stroke="#fff" stroke-linecap="round" stroke-linejoin="round" stroke-width="2.5" d="m44 44-2.2 5-5.4.5"/>
  <path fill="#fff" d="M19 96v-8.5h-6.6V96h1v-7.5H18V96h1Zm4.2.1c1.6 0 2.8-1.2 2.8-3.1 0-2-1.2-3.2-2.8-3.2-1.7 0-2.9 1.2-2.9 3.2 0 1.9 1.2 3.1 2.9 3.1Zm0-.9c-1.1 0-1.8-.8-1.8-2.2 0-1.5.7-2.3 1.8-2.3 1 0 1.7.8 1.7 2.3 0 1.4-.7 2.2-1.7 2.2Zm7.9.8h1v-6h-5v6h1v-5.3h3V96Zm3 2.3c1 0 1.5-.4 2-1.9l2.5-6.5h-1.1l-1.7 5-1.7-5H33l2.3 6.1-.2.4c-.2.7-.5 1-1.1 1h-.4v.8h.4Zm6.7-5 .1-2.6H43V96h1v-6h-4l-.2 3.3c0 1.1-.3 1.8-1 1.8a1 1 0 0 1-.2 0v.9h.3c1.3 0 1.7-1 1.9-2.7Zm8 2.7h1v-6h-2.2c-1.4 0-2.3.7-2.3 2 0 .8.6 1.4 1.4 1.6L45 96h1.2l1.5-2.2h1.1V96Zm-1.1-3c-.8 0-1.3-.5-1.3-1 0-.8.5-1.3 1.3-1.3h1.1V93h-1.1Zm6.5-3.2c-.9 0-1.6.5-2 1.1v-1h-1V98h1v-3h.1c.4.7 1 1.1 2 1.1 1.5 0 2.5-1.2 2.5-3.1 0-2-1-3.2-2.6-3.2Zm-.2 5.4c-1 0-1.7-.9-1.7-2.2 0-1.4.7-2.3 1.7-2.3 1.1 0 1.8.9 1.8 2.3 0 1.3-.7 2.2-1.8 2.2Zm8 .8h1v-6h-1v2.4h-3V90h-1v6h1v-2.7h3V96Zm5 .1c1.6 0 2.8-1.2 2.8-3.1 0-2-1.2-3.2-2.8-3.2-1.7 0-2.9 1.2-2.9 3.2 0 1.9 1.2 3.1 2.9 3.1Zm0-.9c-1.1 0-1.8-.8-1.8-2.2 0-1.5.7-2.3 1.8-2.3 1 0 1.7.8 1.7 2.3 0 1.4-.7 2.2-1.7 2.2Zm8-1c-.2.6-.8 1-1.5 1-1.1 0-1.8-.7-1.8-2H76v-.4c0-1.8-1-3-2.7-3-1.7 0-2.8 1.3-2.8 3.2 0 1.9 1 3.1 2.8 3.1 1.4 0 2.4-.8 2.6-1.8h-1Zm-1.6-3.5c1 0 1.6.7 1.6 1.7h-3.3c0-1 .7-1.7 1.7-1.7Z" opacity=".5"/>
  <rect width="64" height="64" x="84" y="20" fill="#22DA42" rx="32"/>
  <path stroke="#FFFCFC" stroke-linecap="round" stroke-linejoin="round" stroke-width="2.5" d="m116 66-12.9-14.2c-1.7-1.9-4.1-6.8 0-11.3 4.1-4.5 10.3-1.9 12.9 0"/>
  <path stroke="#FFFCFC" stroke-linecap="round" stroke-linejoin="round" stroke-width="2.5" d="M106.4 50c-1-1.2-2.5-4 0-6.6 1.6-1.7 4.1-1.4 5.6-.4m4 23 12.9-14.2c1.7-1.9 4.1-6.8 0-11.3-4.1-4.5-10.3-1.9-12.9 0"/>
  <path fill="#fff" d="M93 96h1v-8.5h-1l-4.6 6.8v-6.8h-1.1V96h1l4.6-6.7V96Zm4.6.1c1.5 0 2.4-.8 2.4-1.9 0-.7-.4-1.2-1.2-1.3.6-.2 1-.8 1-1.4 0-1-.7-1.7-2-1.7-1.4 0-2.3.6-2.4 1.6h1c0-.4.6-.7 1.3-.7.8 0 1.2.3 1.2.8 0 .7-.4 1-1.3 1h-.9v.8h1c.9 0 1.3.3 1.3 1 0 .5-.5 1-1.4 1-.7 0-1.2-.3-1.3-.9h-1c0 1 1 1.7 2.3 1.7Zm6.2 0c1.8 0 2.9-1.2 2.9-3 0-1.9-1-3-2.7-3-1 0-1.7.3-2.1 1 .2-1.8.7-2.5 2.4-2.6h.4c.7 0 1.4-.2 1.5-.4v-.9c-.3.2-1 .3-1.5.4h-.5c-2.4 0-3.2 1.5-3.2 4.8 0 2.5 1 3.7 2.8 3.7Zm0-.9c-1.1 0-1.8-.8-1.8-2.2 0-1.3.7-2 1.8-2s1.8.7 1.8 2c0 1.4-.7 2.2-1.8 2.2Zm7-5.4c-1 0-1.6.5-2 1.1v-1h-1V98h1v-3c.4.7 1.1 1.1 2 1.1 1.5 0 2.6-1.2 2.6-3.1 0-2-1-3.2-2.6-3.2Zm-.2 5.4c-1 0-1.8-.9-1.8-2.2 0-1.4.7-2.3 1.8-2.3 1 0 1.7.9 1.7 2.3 0 1.3-.7 2.2-1.7 2.2Zm5.7 1c.8 0 1.6-.6 2-1.2v1h1v-4.2c0-1.2-1-2-2.4-2s-2.3.8-2.4 1.9h1c.1-.6.6-1 1.4-1 .8 0 1.3.4 1.3 1.2v.5l-1.7.1c-1.4 0-2.2.7-2.2 1.8 0 1 .8 1.8 2 1.8Zm.2-1c-.7 0-1.2-.3-1.2-1 0-.5.5-.9 1.3-1h1.6v.5c0 .9-.7 1.5-1.7 1.5Zm8.1.8h1v-6h-1v2.4h-3V90h-1v6h1v-2.7h3V96Zm6.5 0h1v-6h-1v2.4h-3V90h-1v6h1v-2.7h3V96Zm5 .1c1.7 0 2.8-1.2 2.8-3.1 0-2-1.1-3.2-2.8-3.2-1.7 0-2.8 1.2-2.8 3.2 0 1.9 1.1 3.1 2.8 3.1Zm0-.9c-1 0-1.8-.8-1.8-2.2 0-1.5.7-2.3 1.8-2.3 1 0 1.8.8 1.8 2.3 0 1.4-.7 2.2-1.8 2.2Zm8-1c-.2.6-.7 1-1.5 1-1.1 0-1.8-.7-1.8-2h4.4v-.4c0-1.8-1-3-2.7-3-1.7 0-2.7 1.3-2.7 3.2 0 1.9 1 3.1 2.8 3.1 1.3 0 2.3-.8 2.5-1.8h-1Zm-1.6-3.5c1 0 1.6.7 1.6 1.7h-3.3c0-1 .7-1.7 1.7-1.7Z"/>
  <path stroke="#fff" stroke-width="2.6" d="M201.1 55.2c-.4 1.4-.9 2.8-1 4.2-.2 4.4-2.1 4.4-5.4 4.3-1.2 0-2.5 0-3.7.2l-2.8.8c-3.5 1.2-7.5 2.5-11.7-.9-3.8-3.1-2.6-7-.7-11l.5-1c.2-.6.2-1.4.2-2.5 0-3 .1-7.7 4.9-9.4 11.3-4 13-1 15 2.6.8 1.5 1.7 3.2 3.3 4.5 3.2 2.6 2.4 5 1.4 8.2Z"/>
  <ellipse cx="188.6" cy="52.5" stroke="#fff" stroke-width="2.6" rx="7" ry="7.1"/>
  <path stroke="#fff" stroke-linecap="round" stroke-width="2.6" d="M188.6 49.3a3.2 3.2 0 0 0-2.9 2c-.2.4-.2.8-.2 1.2"/>
  <path fill="#fff" d="M165.6 92.2h1.2c1.2 0 2 .5 2 1.5s-.8 1.6-2 1.6c-1.1 0-2-.6-2-1.5h-1c0 1.4 1.3 2.4 3 2.4s3-1 3-2.5c0-1.1-.7-2-1.8-2v-.1a2 2 0 0 0 1.6-2c0-1.3-1.2-2.3-2.7-2.3-1.7 0-2.8 1-3 2.4h1.1c0-.9.8-1.4 1.8-1.4s1.7.5 1.7 1.4c0 .9-.7 1.5-1.8 1.5h-1.1v1Zm7.2 4c.8 0 1.6-.6 2-1.2v1h1v-4.2c0-1.2-1-2-2.4-2-1.5 0-2.4.8-2.4 1.9h1c0-.6.6-1 1.4-1 .8 0 1.3.4 1.3 1.2v.5l-1.8.1c-1.4 0-2.2.7-2.2 1.8 0 1 .8 1.8 2 1.8Zm.2-1c-.7 0-1.2-.3-1.2-1 0-.5.4-.9 1.3-1h1.6v.5c0 .9-.8 1.5-1.7 1.5Zm6.7.8c1.3 0 2.1-.7 2.1-1.8 0-.7-.5-1.2-1.2-1.3.5-.2 1-.8 1-1.4 0-1-.7-1.6-1.9-1.6h-2.6V96h2.6Zm-1.6-5.3h1.5c.6 0 1 .3 1 .9 0 .6-.4.9-1.2.9h-1.3v-1.8Zm0 2.6h1.4c.9 0 1.3.3 1.3 1 0 .5-.4.9-1.1.9H178v-2Zm9.1-3.4h-5v.8h2V96h1v-5.3h2V90Zm4-.1c-1 0-1.7.5-2 1.1v-1h-1V98h1v-3c.4.7 1 1.1 2 1.1 1.5 0 2.5-1.2 2.5-3.1 0-2-1-3.2-2.6-3.2Zm-.3 5.4c-1 0-1.7-.9-1.7-2.2 0-1.4.7-2.3 1.7-2.3 1.1 0 1.8.9 1.8 2.3 0 1.3-.7 2.2-1.8 2.2Zm5.8 1c.8 0 1.6-.6 2-1.2v1h1v-4.2c0-1.2-1-2-2.4-2-1.5 0-2.4.8-2.4 1.9h1c0-.6.6-1 1.4-1 .8 0 1.3.4 1.3 1.2v.5l-1.8.1c-1.4 0-2.2.7-2.2 1.8 0 1 .9 1.8 2 1.8Zm.2-1c-.7 0-1.2-.3-1.2-1 0-.5.4-.9 1.3-1h1.6v.5c0 .9-.7 1.5-1.7 1.5Zm5.2-2.1 2.6 2.9h1.3l-2.9-3.2 2.8-2.9h-1.2l-2.6 2.7v-2.7h-1V96h1v-3Zm5.8 2.9 3-4.5V96h1v-6h-1l-3 4.4V90h-1v6h1Z" opacity=".5"/>
  <path stroke="#fff" stroke-linecap="round" stroke-width="2.5" d="M253.4 65h13.3c.7 0 1.4-.7 1.4-1.5V62c2.2 0 5.9-4.4 5.9-10.4 0-1.2-1-1.5-1.5-1.5h-25c-.5 0-1.5.3-1.5 1.5 0 6 4 10.4 5.9 10.4v1.5c0 .8.7 1.5 1.5 1.5Zm1.1-20.3a3.5 3.5 0 0 0-4.8 4.9m16.3-5.1a5.5 5.5 0 1 0-11 0"/>
  <path stroke="#fff" stroke-linecap="round" stroke-width="2.5" d="M260.4 50.1c1.3-5.2 8.2-6.5 11.5-6.5.6 2.6-.8 5.5-1.5 6.5h-10Z"/>
  <path fill="#fff" d="M244.4 96.1c1.9 0 3.1-.9 3.5-2.6h-1c-.4 1-1.3 1.7-2.5 1.7-1.7 0-2.7-1.4-2.7-3.4s1-3.4 2.7-3.4c1.2 0 2.2.7 2.4 1.8h1.1c-.3-1.7-1.7-2.8-3.5-2.8-2.3 0-3.8 1.7-3.8 4.4 0 2.6 1.5 4.3 3.8 4.3Zm6.5 0c.8 0 1.6-.5 2-1.1v1h1v-4.2c0-1.2-1-2-2.4-2s-2.3.8-2.4 1.9h1c.1-.6.6-1 1.4-1 .8 0 1.3.4 1.3 1.2v.5l-1.7.1c-1.4 0-2.2.7-2.2 1.8 0 1 .8 1.8 2 1.8Zm.2-.9c-.7 0-1.2-.3-1.2-1 0-.5.5-.9 1.3-1h1.6v.5c0 .9-.7 1.5-1.7 1.5Zm5.8-1.9.2-2.6h2V96h1v-6h-4l-.2 3.3c0 1.1-.3 1.8-.9 1.8a1 1 0 0 1-.3 0v.9h.4c1.3 0 1.7-1 1.8-2.7Zm6.5 2.8c.8 0 1.6-.5 2-1.1v1h1v-4.2c0-1.2-1-2-2.4-2s-2.3.8-2.4 1.9h1c0-.6.6-1 1.4-1 .8 0 1.3.4 1.3 1.2v.5l-1.7.1c-1.4 0-2.2.7-2.2 1.8 0 1 .8 1.8 2 1.8Zm.2-.9c-.7 0-1.2-.3-1.2-1 0-.5.5-.9 1.3-1h1.6v.5c0 .9-.7 1.5-1.7 1.5Zm8.5-5.3h-5v.8h2V96h1v-5.3h2V90Zm6.1 6.1h1v-6h-1v6Zm-5.2 0h2.2c1.4 0 2.3-.8 2.3-2 0-1.3-1-2.1-2.3-2.1H274v-2h-1V96Zm2.2-3.3c.7 0 1.3.5 1.3 1.2 0 .8-.5 1.3-1.3 1.3H274v-2.5h1.2Z" opacity=".5"/>
  <path stroke="#fff" stroke-linecap="round" stroke-linejoin="round" stroke-width="2.5" d="M333 50h-17c-.1 1.7.2 3.5 1 5.1a13 13 0 0 0 3.2 4.5 17 17 0 0 0 5.3 3.1c2 .8 4 1.2 6.3 1.3h-10.6"/>
  <path stroke="#fff" stroke-linecap="round" stroke-linejoin="round" stroke-width="2.5" d="M331 50h17c.1 1.7-.2 3.5-1 5.1a13 13 0 0 1-3.2 4.5 17 17 0 0 1-5.3 3.1c-2 .8-4 1.2-6.3 1.3h10.6M325 39c3.5 2.3-3.5 3.4 0 6m7-6c3.5 2.3-3.5 3.4 0 6m7-6c3.5 2.3-3.5 3.4 0 6"/>
  <path fill="#fff" d="M322.2 96.1c1.8 0 3.1-.9 3.5-2.6h-1c-.4 1-1.3 1.7-2.5 1.7-1.7 0-2.7-1.4-2.7-3.4s1-3.4 2.7-3.4c1.2 0 2.2.7 2.4 1.8h1c-.2-1.7-1.6-2.8-3.4-2.8-2.3 0-3.8 1.7-3.8 4.4 0 2.6 1.4 4.3 3.8 4.3Zm5.2 2.2c1.1 0 1.6-.4 2.1-1.9L332 90h-1l-1.7 5-1.7-5h-1.1l2.2 6.1-.1.4c-.3.7-.6 1-1.1 1h-.4v.8h.4Zm9.4-2.3h1v-6h-5v6h1v-5.3h3V96Zm7.7 0h1v-6h-1v6Zm-5.3 0h2.2c1.4 0 2.3-.8 2.3-2 0-1.3-.9-2.1-2.3-2.1h-1.1v-2h-1V96Zm2.2-3.3c.8 0 1.3.5 1.3 1.2 0 .8-.5 1.3-1.3 1.3h-1.1v-2.5h1Z" opacity=".5"/>
  <path stroke="#fff" stroke-linecap="round" stroke-linejoin="round" stroke-width="2.5" d="M394.6 62c1.3 1.4 4.6 4 7.4 2.5 1.3-.8-.5-3.1-1.6-4.2M414 42.8c1.4 1.3 4 4.6 2.5 7.4-.8 1.3-3.1-.5-4.2-1.6"/>
  <path stroke="#fff" stroke-linecap="round" stroke-linejoin="round" stroke-width="2.5" d="M392 52.2c-.5 2.6-1 8 1.3 9 2.3 1.1 6-.4 7.4-1.2.7-.5 1.8-2.1 1-5.2m2.9-14.8c2.6-.5 8-1 9 1.3s-.3 6-1.2 7.4c-.4.7-2 1.8-5.1 1"/>
  <path stroke="#fff" stroke-linecap="round" stroke-linejoin="round" stroke-width="2.5" d="M406.5 52.2c1.3-.8 1-2.3.7-3l-2-7.8c0-.7-.6-3.5-3.5-1.9-4.8 2-9.3 8.1-10.3 10-1 2 0 3.3 1.6 3.3a59 59 0 0 1 8.4 2c.4 0 1.4.1 2.2-.7 1-1 1.3-1 3-2Z"/>
  <path fill="#fff" d="M385.3 96c1.8 0 2.9-.9 2.9-2.4a2 2 0 0 0-2-2v-.1c.9-.1 1.5-1 1.5-1.8 0-1.3-1-2.2-2.4-2.2h-3.2V96h3.2Zm-2.1-7.5h1.9c1 0 1.6.4 1.6 1.3s-.7 1.4-2 1.4h-1.5v-2.7Zm0 6.6v-3h1.9c1.3 0 2 .5 2 1.5s-.7 1.5-2 1.5h-2Zm11.3.9h1v-6h-1v6Zm-5.2 0h2.2c1.4 0 2.3-.8 2.3-2 0-1.3-1-2.1-2.3-2.1h-1.2v-2h-1V96Zm2.2-3.3c.8 0 1.3.5 1.3 1.2 0 .8-.5 1.3-1.3 1.3h-1.2v-2.5h1.2Zm9.4 3.3h1v-6h-5v6h1v-5.3h3V96Zm6.5-1.7c-.1.5-.7 1-1.5 1-1 0-1.8-.8-1.8-2h4.4v-.5c0-1.8-1-3-2.7-3-1.6 0-2.7 1.3-2.7 3.2 0 1.9 1 3.1 2.8 3.1 1.3 0 2.3-.8 2.5-1.8h-1Zm-1.6-3.6c1 0 1.6.7 1.6 1.7h-3.3c.1-1 .8-1.7 1.7-1.7Zm8.4 5.3v-6h-1v2.5c-.3.3-.8.5-1.5.5-.8 0-1.2-.6-1.2-1.4V90h-1v1.8c0 1.3.7 2.1 2.2 2.1.6 0 1-.1 1.4-.3h.1V96h1Zm2.5-3 2.7 3h1.3l-3-3.2 2.9-2.9h-1.3l-2.6 2.7v-2.7h-1V96h1v-3Zm6.4 3.1c.8 0 1.6-.5 2-1.1v1h1v-4.2c0-1.2-1-2-2.4-2s-2.3.8-2.4 1.9h1c.1-.6.6-1 1.4-1 .9 0 1.4.4 1.4 1.2v.5l-1.8.1c-1.4 0-2.2.7-2.2 1.8 0 1 .8 1.8 2 1.8Zm.3-.9c-.8 0-1.3-.3-1.3-1 0-.5.5-.9 1.3-1h1.7v.5c0 .9-.8 1.5-1.7 1.5Z" opacity=".5"/>
  <path stroke="#fff" stroke-linecap="round" stroke-width="2.5" d="M463 58c0-.6.4-1 1-1h12l7 3.5 2-3.5h3c.6 0 1 .4 1 1v2a4 4 0 0 1-4 4h-18a4 4 0 0 1-4-4v-2Zm0-6.4c0-6.4 5.2-11.6 11.6-11.6h2.8c6.4 0 11.6 5.2 11.6 11.6v0c0 .2-.2.4-.4.4h-25.2a.4.4 0 0 1-.4-.4v0Z"/>
  <circle cx="476.5" cy="44.5" r=".5" stroke="#fff" stroke-linecap="round" stroke-width="2.5"/>
  <circle cx="482.5" cy="47.5" r=".5" stroke="#fff" stroke-linecap="round" stroke-width="2.5"/>
  <path fill="#fff" d="M460 93.5c0-1.5-1-2.6-2.6-2.6h-2v-2.4h3.8v-1h-5V96h3.2c1.6 0 2.7-1 2.7-2.5Zm-4.7 1.6v-3.2h1.8c1.2 0 1.9.5 1.9 1.6 0 1-.7 1.6-2 1.6h-1.7Zm6.4 3.2c1.1 0 1.6-.4 2.1-1.9l2.4-6.5h-1l-1.7 5-1.7-5h-1.1l2.2 6.1-.1.4c-.2.7-.6 1-1.1 1h-.4v.8h.4Zm8.4-8.5c-.9 0-1.6.5-2 1.1v-1h-1V98h1v-3h.1c.4.7 1 1.1 2 1.1 1.5 0 2.5-1.2 2.5-3.1 0-2-1-3.2-2.6-3.2Zm-.2 5.4c-1 0-1.7-.9-1.7-2.2 0-1.4.7-2.3 1.7-2.3 1.1 0 1.8.9 1.8 2.3 0 1.3-.7 2.2-1.8 2.2Zm7.9-4.5V90h-4v6h1v-5.3h3Zm5 3.6c-.3.5-.8 1-1.6 1-1 0-1.8-.8-1.8-2h4.4v-.5c0-1.8-1-3-2.7-3-1.6 0-2.7 1.3-2.7 3.2 0 1.9 1 3.1 2.8 3.1 1.3 0 2.3-.8 2.5-1.8h-1Zm-1.7-3.6c1 0 1.6.7 1.6 1.7h-3.3c0-1 .8-1.7 1.7-1.7Zm6.8-.9c-.9 0-1.6.5-2 1.1v-1h-1V98h1v-3c.4.7 1.2 1.1 2 1.1 1.6 0 2.6-1.2 2.6-3.1 0-2-1-3.2-2.6-3.2Zm-.2 5.4c-1 0-1.7-.9-1.7-2.2 0-1.4.7-2.3 1.7-2.3s1.8.9 1.8 2.3c0 1.3-.7 2.2-1.8 2.2Zm9.2.8h1v-6h-1v6Zm-5.3 0h2.2c1.4 0 2.3-.8 2.3-2 0-1.3-.9-2.1-2.3-2.1h-1.1v-2h-1V96Zm2.2-3.3c.8 0 1.3.5 1.3 1.2 0 .8-.5 1.3-1.3 1.3h-1.1v-2.5h1.1Z" opacity=".5"/>
</svg>
