
SVGOMG
Powered by SVGO v2.6.1

Open SVG
Paste markup
Demo
Contribute
About

28.69k → 7.3k 25.45%
<svg xmlns="http://www.w3.org/2000/svg" width="343" height="524" fill="none" viewBox="0 0 343 524">
  <g clip-path="url(#a)">
    <path fill="#000" d="M7 81V67.8h4.6V66H4.9v15h2Zm3-1.8v4.5h1.8V81h7.4v2.7H21v-4.5h-1.4V71h-7.7c0 5.9-.4 7.2-1 8.2h-1Zm3.5-2.4.2-4h3.9v6.4H13l.5-2.4Zm18.5-.1.1-.7c0-3-2-5.2-5-5.2-2.8 0-4.8 2.1-4.8 5.2 0 3 2 5.2 4.9 5.2 2.3 0 4-1.1 4.6-3.2h-2.1c-.4.9-1.2 1.4-2.4 1.4-1.7 0-2.8-1-3-2.7H32Zm-4.8-4.1c1.6 0 2.7 1 3 2.6h-6c.3-1.6 1.4-2.6 3-2.6ZM43.7 71c-1.7 0-3 .7-3.5 1.8v-.4c0-2.5.7-3.4 2.8-3.7l2.2-.3c2.1-.3 2.9-.7 3-2.4h-2c0 .3-.2.5-1 .6l-2.4.4c-3 .4-4.5 1.7-4.5 5.6V76a5 5 0 0 0 5 5.1 5 5 0 0 0 5.1-5.1c0-3-2.2-5.1-4.7-5.1Zm-.4 8.4c-1.7 0-3-1.4-3-3.3 0-2 1.3-3.3 3-3.3 1.8 0 3.1 1.4 3.1 3.3s-1.3 3.3-3 3.3Zm11.8 2.7 4-11.1h-2l-3 8.4-2.8-8.4h-2l4 11.1c-.7 1.6-1.4 2.3-2.7 2.3l-1.3-.2v1.7c.4.2 1 .3 1.5.3 2.5 0 3.5-1.7 4.3-4Zm4.2-2.9v4.5h1.9V81h7.3v2.7h1.8v-4.5H69V71h-7.7c0 5.9-.4 7.2-1 8.2h-.9Zm3.5-2.4c.2-1 .2-2.2.3-4h3.8v6.4h-4.6c.2-.5.4-1.3.5-2.4Zm18.6-.1V76c0-3-2-5.2-4.9-5.2-2.8 0-4.9 2.1-4.9 5.2 0 3 2 5.2 5 5.2 2.2 0 4-1.1 4.6-3.2H79c-.4.9-1.2 1.4-2.4 1.4-1.7 0-2.8-1-3-2.7h7.8Zm-4.9-4.1c1.6 0 2.7 1 3 2.6h-6c.3-1.6 1.4-2.6 3-2.6ZM87.4 81v-8.2h3.3V71h-8.5v1.8h3.2V81h2Zm14-4.3V76c0-3-2-5.2-4.9-5.2-2.8 0-4.9 2.1-4.9 5.2 0 3 2.1 5.2 5 5.2 2.2 0 4-1.1 4.6-3.2H99c-.4.9-1.2 1.4-2.4 1.4-1.7 0-2.8-1-3-2.7h7.8Zm-4.9-4.1c1.6 0 2.7 1 3 2.6h-5.9c.2-1.6 1.3-2.6 3-2.6Zm20.9 4.1V76c0-3-2-5.2-5-5.2-2.8 0-4.8 2.1-4.8 5.2 0 3 2 5.2 4.9 5.2 2.3 0 4-1.1 4.6-3.2H115c-.4.9-1.2 1.4-2.4 1.4-1.7 0-2.8-1-3-2.7h7.8Zm-5-4.1c1.7 0 2.8 1 3 2.6h-5.9c.3-1.6 1.4-2.6 3-2.6Zm14.3 2.4h2.1c-.2-2.5-2.3-4.2-5-4.2-2.8 0-5 2.1-5 5.2 0 3 2.2 5.2 5 5.2s4.9-1.8 5-4.4h-2a2.8 2.8 0 0 1-3 2.6c-1.6 0-3-1.4-3-3.4s1.4-3.4 3-3.4a3 3 0 0 1 3 2.4Zm8.1 6v-8.2h3.3V71h-8.5v1.8h3.2V81h2Zm13.2-3.4c0-2-1.5-3.3-3.9-3.3H142V71h-2v10h4.2c2.5 0 3.9-1.4 3.9-3.4Zm-4-1.6c1.3 0 2 .5 2 1.6s-.7 1.7-2 1.7h-2.1V76h2Zm13.3-6.4c0-2.4-1.8-3.8-4.4-3.8-2.3 0-4.4 1.4-4.4 4.3v.7h2v-.5c0-2 1.1-2.7 2.4-2.7 1.5 0 2.4.8 2.4 2 0 2.2-3.3 2.9-3.3 5.9v.5h1.8v-.4c.1-2.6 3.5-3 3.5-6Zm-4.4 11.6c.7 0 1.3-.6 1.3-1.2 0-.7-.6-1.3-1.3-1.3-.7 0-1.2.6-1.2 1.3 0 .6.5 1.2 1.2 1.2ZM43 112.9h1.6c1.7 0 2.6.7 2.6 2s-1 2.1-2.5 2.1c-1.6 0-2.6-.8-2.8-2h-1.3c0 2 1.7 3.3 4.1 3.3 2.2 0 4-1.5 4-3.3 0-1.6-1-2.6-2.4-2.8v-.1c1.2-.3 2-1.4 2-2.6 0-1.8-1.5-3-3.6-3-2.2 0-3.7 1.2-3.8 3.1h1.4c0-1.2 1-1.9 2.4-1.9s2.2.7 2.2 1.9-1 2-2.3 2H43v1.3Zm10 4.1c-1 0-1.7-.5-1.7-1.3s.6-1.2 1.7-1.3l2.2-.2v.7c0 1.2-1 2-2.3 2Zm-.4 1.1a3 3 0 0 0 2.6-1.5v1.4h1.3v-5.6c0-1.6-1.2-2.7-3-2.7-2 0-3.2 1.1-3.3 2.5h1.3c.2-.8.8-1.3 1.9-1.3 1.1 0 1.8.6 1.8 1.6v.7l-2.4.1c-1.8.1-2.9 1-2.9 2.4 0 1.5 1 2.4 2.7 2.4Zm15.8-5.7c-.2-1.4-1.4-2.7-3.4-2.7-2.2 0-3.7 1.7-3.7 4.2 0 2.6 1.5 4.2 3.7 4.2 1.9 0 3.2-1 3.4-2.6h-1.3c-.3 1-1 1.4-2 1.4-1.5 0-2.4-1.1-2.4-3 0-1.8 1-3 2.3-3 1.2 0 1.8.7 2 1.5h1.4Zm7.2-2.5H69v1h2.7v7.1H73v-7h2.6v-1.1Zm4.5 8.2c2.3 0 3.8-1.6 3.8-4.2s-1.5-4.2-3.8-4.2c-2.2 0-3.8 1.6-3.8 4.2s1.6 4.2 3.8 4.2Zm0-1.2c-1.4 0-2.4-1-2.4-3 0-1.9 1-3 2.4-3s2.4 1.1 2.4 3c0 2-1 3-2.4 3Zm7.1-2.5.3-3.4h2.8v7h1.3v-8.1h-5.3l-.3 4.5c-.1 1.5-.4 2.4-1.3 2.4h-.4v1.2h.5c1.7 0 2.3-1.3 2.4-3.6Zm7.7 3.6 4-6v6h1.4v-8.1H99l-4 6h-.1v-6h-1.4v8.1H95Zm10.1-4.3 3.8-3.8H107l-3.5 3.6v-3.6h-1.4v8.1h1.4v-4l3.5 4h1.8l-4-4.3Zm8.3 4.4c2.2 0 3.7-1.6 3.7-4.2s-1.5-4.2-3.8-4.2c-2.2 0-3.7 1.6-3.7 4.2s1.5 4.2 3.8 4.2Zm0-1.2c-1.5 0-2.4-1-2.4-3 0-1.9 1-3 2.3-3 1.5 0 2.4 1.1 2.4 3 0 2-1 3-2.3 3Zm6.6 1.1v-5.8l2.6 5.6h1l2.7-5.6v5.8h1.4v-8.1H126l-2.9 6.3-3-6.3h-1.6v8.1h1.4Z"/>
    <circle cx="12" cy="112" r="9.5" fill="#FFED6C" stroke="#979797"/>
    <path fill="#000" d="M43 146.9h1.6c1.7 0 2.6.7 2.6 2s-1 2.1-2.5 2.1c-1.6 0-2.6-.8-2.8-2h-1.3c0 2 1.7 3.3 4.1 3.3 2.2 0 4-1.5 4-3.3 0-1.6-1-2.6-2.4-2.8v-.1c1.2-.3 2-1.4 2-2.6 0-1.8-1.5-3-3.6-3-2.2 0-3.7 1.2-3.8 3.1h1.4c0-1.2 1-1.9 2.4-1.9s2.2.7 2.2 1.9-1 2-2.3 2H43v1.3Zm9.6 5.2a3 3 0 0 0 2.6-1.5v1.4h1.3v-5.6c0-1.6-1.2-2.7-3-2.7-2 0-3.2 1.1-3.3 2.5h1.3c.2-.8.8-1.3 1.9-1.3 1.1 0 1.8.6 1.8 1.6v.7l-2.4.1c-1.8.1-2.9 1-2.9 2.4 0 1.5 1 2.4 2.7 2.4Zm.3-1.1c-1 0-1.6-.5-1.6-1.3s.6-1.2 1.7-1.3l2.2-.2v.7c0 1.2-1 2-2.3 2Zm9.1 1c1.6 0 2.7-.9 2.7-2.3 0-1-.7-1.8-1.7-1.9.8-.2 1.3-1 1.3-1.8 0-1.3-.9-2.1-2.4-2.1h-3.5v8.1H62Zm-2.2-7h1.9c.8 0 1.3.4 1.3 1.1 0 .8-.5 1.2-1.5 1.2h-1.7V145Zm0 3.4h1.8c1.2 0 1.7.4 1.7 1.2 0 .9-.5 1.3-1.5 1.3h-2v-2.5Zm11.8 1.3c-.2.7-1 1.3-2 1.3-1.4 0-2.3-1-2.3-2.6H73v-.6c0-2.5-1.4-4-3.6-4S66 145.3 66 148c0 2.5 1.4 4.1 3.7 4.1 1.8 0 3.2-1 3.4-2.4h-1.4Zm-2-4.8c1.2 0 2 1 2 2.3h-4.3c0-1.3 1-2.3 2.2-2.3Zm9-1.2a3 3 0 0 0-2.7 1.6v-1.4h-1.3v10.8H76v-4c.5.9 1.4 1.4 2.6 1.4 2 0 3.4-1.6 3.4-4.2 0-2.5-1.4-4.2-3.4-4.2Zm-.3 7.2c-1.4 0-2.3-1.2-2.3-3s1-3 2.3-3c1.4 0 2.3 1.2 2.3 3 0 1.9-.9 3-2.3 3Zm10.6 1.1h1.4v-8.1h-1.4v3.3h-4V144h-1.3v8.1h1.3v-3.7h4v3.7Zm4.6 0 4-6h.1v6H99v-8.1h-1.4l-4 6v-6h-1.4v8.1h1.3Zm13.3-8.1h-6.6v1h2.7v7.1h1.3v-7h2.6v-1.1Zm6.5 5.8c-.2.7-1 1.3-2 1.3-1.4 0-2.4-1-2.4-2.6h5.9v-.6c0-2.5-1.4-4-3.6-4s-3.7 1.6-3.7 4.2c0 2.5 1.5 4.1 3.8 4.1 1.8 0 3.1-1 3.4-2.4h-1.4Zm-2.1-4.8c1.3 0 2.1 1 2.2 2.3H109c0-1.3 1-2.3 2.2-2.3Zm15.1 1.6c-.1-1.4-1.3-2.8-3.4-2.8-2.2 0-3.7 1.7-3.7 4.2 0 2.7 1.5 4.2 3.7 4.2 1.9 0 3.2-1.1 3.5-2.7H125c-.2 1-1 1.5-2 1.5-1.5 0-2.4-1-2.4-3 0-1.8 1-3 2.3-3a2 2 0 0 1 2.1 1.6h1.3Zm11.5 0a3.3 3.3 0 0 0-3.4-2.8c-2.3 0-3.8 1.7-3.8 4.2 0 2.7 1.5 4.2 3.8 4.2 1.8 0 3.2-1.1 3.4-2.7h-1.3c-.3 1-1 1.5-2.1 1.5-1.4 0-2.4-1-2.4-3 0-1.8 1-3 2.4-3a2 2 0 0 1 2 1.6h1.4Zm4.8 5.6c2.2 0 3.7-1.6 3.7-4.2s-1.5-4.2-3.7-4.2c-2.3 0-3.8 1.6-3.8 4.2s1.5 4.2 3.8 4.2Zm0-1.2c-1.5 0-2.4-1-2.4-3 0-1.9 1-3 2.4-3s2.4 1.1 2.4 3c0 2-1 3-2.4 3Zm8.7 1.2c2.4 0 3.8-1.5 3.8-4s-1.4-4-3.6-4c-1.2 0-2.2.4-2.8 1.4.3-2.4 1-3.4 3.2-3.5h.6c1 0 1.8-.3 2.1-.5v-1.2c-.5.3-1.3.4-2.1.4h-.6c-3.2.2-4.4 2-4.4 6.5 0 3.3 1.4 5 3.8 5Zm0-1.2c-1.5 0-2.4-1-2.4-2.9 0-1.8 1-2.8 2.4-2.8 1.6 0 2.4 1 2.4 2.8 0 1.9-.8 3-2.4 3Zm8.7 1.2c2.3 0 3.8-1.6 3.8-4.2s-1.5-4.2-3.8-4.2c-2.2 0-3.7 1.6-3.7 4.2s1.5 4.2 3.7 4.2Zm0-1.2c-1.4 0-2.4-1-2.4-3 0-1.9 1-3 2.4-3 1.5 0 2.4 1.1 2.4 3 0 2-1 3-2.4 3Zm6.2-10.5c0 1.4 1 2.4 2.5 2.4s2.6-1 2.6-2.4h-1c0 .9-.6 1.6-1.6 1.6-.9 0-1.5-.7-1.5-1.6h-1Zm.5 11.6 4-6v6h1.4v-8.1h-1.3l-4 6h-.1v-6h-1.4v8.1h1.4Z"/>
    <circle cx="12" cy="146" r="9.5" fill="#FFED6C" stroke="#979797"/>
    <circle cx="12" cy="146" r="4" fill="#2C2C2C"/>
    <path fill="#000" d="M7 197v-5.7h2.3c2.4 0 4.1-1.5 4.1-4.2V186c0-2.6-1.7-4-4.1-4H4.9v15h2Zm2-13.2c1.5 0 2.4.7 2.4 2.4v.7c0 1.8-.9 2.5-2.3 2.5H6.9v-5.6h2.2Zm9.2 13.4c1.5 0 2.8-.6 3.4-1.9v1.7h2v-7c0-2.3-2-3.2-4.2-3.2s-4.3 1-4.3 3.6h2.1c0-1.3 1-2 2.2-2 1.2 0 2.2.5 2.2 1.5 0 2.3-6.8.1-6.8 4.5 0 2 1.7 2.8 3.4 2.8Zm-1.3-3c0-1.6 3-1.2 4.7-2v.7c0 1.7-1.4 2.6-3 2.6-1 0-1.7-.4-1.7-1.3Zm11.9-3v1.5h1.6c1.1 0 1.8.5 1.8 1.4 0 .9-.6 1.5-2.1 1.5-1.7 0-2.5-.8-2.5-2.1h-2c0 2.3 1.6 3.7 4.4 3.7 2.8 0 4.2-1.1 4.2-3 0-1.1-.6-1.9-1.7-2.3 1-.4 1.5-1.3 1.5-2.2 0-1.6-1.3-2.9-4-2.9-2.8 0-4.2 1.6-4.2 3.6h2c0-1.3.8-2 2.2-2 1.4 0 2 .6 2 1.4 0 .9-.5 1.4-1.6 1.4h-1.6Zm14.6 5.8 2.8-8.6v8.6h2v-10h-3.3l-2.5 8.2-2.5-8.2h-3.4v10h1.9v-8.6L41 197h2.3Zm16.8-4.3v-.7c0-3-2-5.2-4.9-5.2-2.8 0-4.9 2.1-4.9 5.2 0 3 2 5.2 5 5.2 2.2 0 4-1.1 4.6-3.2h-2.2c-.4.9-1.2 1.4-2.4 1.4-1.7 0-2.8-1-3-2.7h7.8Zm-4.9-4.1c1.6 0 2.7 1 3 2.6h-6c.3-1.6 1.4-2.6 3-2.6Zm9.2 13.4v-6.5a4 4 0 0 0 3.3 1.7c2.7 0 4.8-2.1 4.8-5.2 0-3-2.1-5.2-4.8-5.2a4 4 0 0 0-3.3 1.7V187h-2v15h2Zm3-6.6c-1.7 0-3-1.4-3-3.4s1.3-3.4 3-3.4c1.8 0 3 1.4 3 3.4s-1.2 3.4-3 3.4ZM52.3 234v-11.3h-1.7l-3.8 9.5h-.1l-3.9-9.5h-1.6V234h1.3v-8.7l3.6 8.7h1.2l3.6-8.7v8.7h1.4Zm4.5.1a3 3 0 0 0 2.6-1.5v1.4h1.3v-5.6c0-1.6-1.2-2.7-3-2.7-2 0-3.2 1.1-3.3 2.5h1.3c.2-.8.8-1.3 1.9-1.3 1.1 0 1.8.6 1.8 1.6v.7l-2.4.1c-1.8.1-3 1-3 2.4 0 1.5 1.2 2.4 2.8 2.4Zm.3-1.1c-1 0-1.6-.5-1.6-1.3s.6-1.2 1.7-1.3l2.2-.2v.7c0 1.2-1 2-2.3 2Zm7.7-2.6.2-3.4h2.8v7H69v-8.1h-5.3l-.3 4.5c-.1 1.5-.4 2.4-1.2 2.4h-.4v1.2h.5c1.7 0 2.2-1.3 2.4-3.6Zm11.6 1.3c-.2.7-1 1.3-2 1.3-1.4 0-2.3-1-2.3-2.6h5.8v-.6c0-2.5-1.4-4-3.6-4s-3.6 1.6-3.6 4.2c0 2.5 1.4 4.1 3.7 4.1 1.8 0 3.1-1 3.4-2.4h-1.4Zm-2-4.8c1.2 0 2 1 2 2.3h-4.3c0-1.3 1-2.3 2.2-2.3Zm10.3 7.1h1.4v-8.1h-1.4v3.3h-4V226h-1.3v8.1h1.4v-3.7h4v3.7Zm3.3 0h3c1.9 0 3-1 3-2.8 0-1.7-1.1-2.7-3-2.7h-1.5v-2.6H88v8.1Zm2.9-4.4c1 0 1.7.6 1.7 1.6S92 233 91 233h-1.5v-3.3H91Zm6 .4 3.5 4h1.7l-3.9-4.3 3.8-3.8h-1.7l-3.4 3.6h-.1v-3.6h-1.4v8.1h1.4v-4Zm7.7 4 4-6v6h1.4v-8.1h-1.3l-4 6h-.1v-6h-1.4v8.1h1.4Zm8.3-11.6c0 1.4 1 2.4 2.5 2.4s2.5-1 2.5-2.4h-1c0 .9-.6 1.6-1.5 1.6-1 0-1.5-.7-1.5-1.6h-1Zm.4 11.6 4-6h.1v6h1.4v-8.1h-1.4l-4 6v-6H112v8.1h1.3Z"/>
    <path fill="#9E9E9E" d="M257 230v-1.2h-5.2v1.3h5.1Zm4.1 4h1.4v-11.3H261l-3 2.2v1.4l3-2v9.7Zm8.2.2c2.6 0 4.1-2.3 4.1-5.8 0-3.6-1.5-5.9-4.1-5.9-2.6 0-4.2 2.3-4.2 5.9 0 3.5 1.6 5.8 4.2 5.8Zm0-1.2c-1.8 0-2.7-1.8-2.7-4.6s1-4.6 2.7-4.6c1.7 0 2.7 1.8 2.7 4.6s-1 4.6-2.7 4.6Zm17.2-6.4h-1.6c.5-.3.8-.8.8-1.4 0-1.6-1.4-2.5-3.3-2.5-2 0-3.5 1.2-3.7 2.7h1.4c.3-1 1-1.5 2.3-1.5 1 0 2 .6 2 1.5 0 .7-.6 1.2-1.9 1.2H278v1h8.5v-1Zm-1.9 4.5c-.2 1.3-1.1 1.7-2.5 1.7-1.2 0-2.1-.6-2.1-1.5s.5-1.5 2.1-1.5h4.4v-1H278v1h1.7c-.7.4-1 1-1 1.8 0 1.5 1.3 2.5 3.5 2.5 2.1 0 3.7-1.3 3.8-3h-1.4Zm12.3.9c1.3 0 2.3-1 2.3-2.4 0-1.3-1-2.3-2.3-2.3a2.3 2.3 0 1 0 0 4.7Zm13.5 2h1.4v-11.3h-1.4l-3 2.2v1.4l3-2v9.7Zm8.1.2c2.4 0 4.1-1.4 4.1-3.2 0-1.4-1-2.6-2.4-3 1.2-.4 2-1.3 2-2.5 0-1.7-1.6-3-3.7-3s-3.7 1.3-3.7 3c0 1.2.8 2.1 2 2.5a3 3 0 0 0-2.4 3c0 1.8 1.7 3.2 4.1 3.2Zm0-6.7c-1.3 0-2.3-.8-2.3-1.9 0-1 1-1.8 2.3-1.8 1.4 0 2.3.7 2.3 1.8s-1 1.9-2.3 1.9Zm0 5.5c-1.5 0-2.6-1-2.6-2.1 0-1.3 1-2.2 2.6-2.2s2.7 1 2.7 2.2c0 1.2-1.1 2-2.7 2Zm9.7 1.2c2.6 0 4.1-2.3 4.1-5.8 0-3.6-1.5-5.9-4.1-5.9-2.6 0-4.2 2.3-4.2 5.9 0 3.5 1.5 5.8 4.2 5.8Zm0-1.2c-1.8 0-2.8-1.8-2.8-4.6s1-4.6 2.8-4.6c1.7 0 2.7 1.8 2.7 4.6s-1 4.6-2.7 4.6Zm14.3-6v-1.1h-5.3v8.1h1.4v-7h3.9Z"/>
    <circle cx="12" cy="228" r="9.5" fill="#FFED6C" stroke="#979797"/>
    <path fill="#000" d="M48.9 264.6c0-2-1.5-3.4-3.6-3.4h-2.7V258h5.2v-1.3h-6.6V268h4c2.2 0 3.7-1.4 3.7-3.4Zm-6.3 2.1v-4.2h2.3c1.6 0 2.5.8 2.5 2.1 0 1.4-.9 2.1-2.5 2.1h-2.3Zm11.6 1.4c2.2 0 3.7-1.6 3.7-4.2s-1.5-4.2-3.7-4.2c-2.3 0-3.8 1.6-3.8 4.2s1.5 4.2 3.8 4.2Zm0-1.2c-1.5 0-2.4-1-2.4-3 0-1.9 1-3 2.4-3s2.3 1.1 2.3 3c0 2-1 3-2.3 3Zm7.1-2.5.3-3.4h2.7v7h1.4v-8.1h-5.4l-.3 4.5c0 1.5-.4 2.4-1.2 2.4h-.4v1.2h.5c1.7 0 2.2-1.3 2.4-3.6Zm6.3 3.6h2.9c1.8 0 3-1 3-2.8 0-1.7-1.2-2.7-3-2.7h-1.6v-2.6h-1.3v8.1Zm2.8-4.4c1 0 1.8.6 1.8 1.6s-.7 1.7-1.8 1.7H69v-3.3h1.5ZM75 268h10v-8.1h-1.3v7h-3v-7h-1.4v7h-3v-7H75v8.1Zm15.3.1c2.3 0 3.8-1.6 3.8-4.2s-1.5-4.2-3.8-4.2c-2.2 0-3.8 1.6-3.8 4.2s1.6 4.2 3.8 4.2Zm0-1.2c-1.4 0-2.4-1-2.4-3 0-1.9 1-3 2.4-3 1.5 0 2.4 1.1 2.4 3 0 2-1 3-2.4 3Zm6.2-10.5c0 1.4 1 2.4 2.5 2.4s2.5-1 2.5-2.4h-1c0 .9-.5 1.6-1.5 1.6s-1.5-.7-1.5-1.6h-1ZM97 268l4-6h.1v6h1.4v-8.1h-1.3l-4 6H97v-6h-1.4v8.1h1.3Z"/>
    <circle cx="12" cy="262" r="9.5" fill="#FFED6C" stroke="#979797"/>
    <circle cx="12" cy="262" r="4" fill="#2C2C2C"/>
    <path fill="#9E9E9E" d="M307.4 262.8h1.4c1.6 0 2.5.8 2.5 2.1 0 1.2-1 2-2.4 2-1.5 0-2.6-.7-2.7-1.9H305c0 1.9 1.6 3.2 4 3.2 2.2 0 3.9-1.4 3.9-3.3 0-1.6-1.2-2.6-2.8-2.8 1.4-.3 2.4-1.3 2.4-2.7 0-1.6-1.3-2.9-3.6-2.9-2 0-3.6 1.3-3.7 3.2h1.3c.1-1.2 1.1-2 2.4-2 1.5 0 2.2.8 2.2 2 0 1-1 1.9-2.3 1.9h-1.3v1.2Zm11.1 5.4c2.6 0 4.1-2.3 4.1-5.8 0-3.6-1.5-5.9-4.1-5.9-2.6 0-4.2 2.3-4.2 5.9 0 3.5 1.5 5.8 4.2 5.8Zm0-1.2c-1.8 0-2.8-1.8-2.8-4.6s1-4.6 2.8-4.6c1.7 0 2.7 1.8 2.7 4.6s-1 4.6-2.7 4.6Zm9.7 1.2c2.6 0 4.1-2.3 4.1-5.8 0-3.6-1.5-5.9-4.1-5.9-2.6 0-4.2 2.3-4.2 5.9 0 3.5 1.5 5.8 4.2 5.8Zm0-1.2c-1.8 0-2.8-1.8-2.8-4.6s1-4.6 2.8-4.6c1.7 0 2.7 1.8 2.7 4.6s-1 4.6-2.7 4.6Zm14.3-6v-1.1h-5.3v8.1h1.4v-7h3.9Z"/>
    <path fill="#000" d="M11 313h2.2l-3.7-7.7 3.4-7.3h-2.1l-2.4 5.6-2.5-5.6H3.8l3.4 7.3-3.6 7.7h2.1l2.7-6 2.6 6Zm12.1 0v-10h-7.4c0 4.5-.1 6.2-.4 7-.2.8-.6 1.2-1.1 1.2H14v1.8h.4c1.6 0 2.4-.7 2.9-3.2l.3-5H21v8.2h2Zm12.1-4.3v-.7c0-3-2-5.2-5-5.2-2.8 0-4.8 2.1-4.8 5.2 0 3 2 5.2 4.9 5.2 2.3 0 4-1.1 4.6-3.2h-2.1c-.4.9-1.2 1.4-2.4 1.4-1.7 0-2.8-1-3-2.7h7.8Zm-5-4.1c1.7 0 2.8 1 3 2.6h-5.9c.3-1.6 1.4-2.6 3-2.6Zm12.2-1.6c-1.8 0-3 .7-3.6 1.8v-.4c0-2.5.7-3.4 2.9-3.7l2.1-.3c2.2-.3 3-.7 3-2.4h-2c0 .3-.2.5-.9.6l-2.4.4c-3.1.4-4.6 1.7-4.6 5.6v3.5a5 5 0 0 0 5 5.1 5 5 0 0 0 5.1-5.1c0-3-2.1-5.1-4.6-5.1Zm-.4 8.4c-1.8 0-3-1.4-3-3.3 0-2 1.2-3.3 3-3.3s3 1.4 3 3.3-1.2 3.3-3 3.3Zm3.6 37.6v1.2H47V349c3-.1 5-2 5-4.7 0-2.8-2-4.6-5-4.6v-1.1h-1.4v1c-3 .2-5 2-5 4.7 0 2.8 2 4.6 5 4.7Zm0-1.3c-2.2 0-3.5-1.3-3.5-3.4 0-2 1.3-3.3 3.5-3.4v6.8Zm5-3.4c0 2-1.4 3.3-3.6 3.4V341c2.2.1 3.6 1.4 3.6 3.4Zm6.4 5.8c2.3 0 3.8-1.6 3.8-4.2s-1.5-4.2-3.8-4.2c-2.2 0-3.8 1.6-3.8 4.2s1.6 4.2 3.8 4.2Zm0-1.2c-1.4 0-2.4-1-2.4-3 0-1.9 1-3 2.4-3 1.5 0 2.4 1.1 2.4 3 0 2-1 3-2.4 3Zm6.7-2.9 3.5 4H69l-4-4.3 4-3.7h-1.7l-3.5 3.6V342h-1.4v8.1h1.4v-4Zm8.5 4.1a3 3 0 0 0 2.7-1.5v1.4h1.3v-5.6c0-1.6-1.2-2.7-3.1-2.7-2 0-3.2 1.1-3.3 2.5h1.4c.1-.8.8-1.3 1.8-1.3 1.2 0 1.8.6 1.8 1.6v.7l-2.3.1c-1.9.1-3 1-3 2.4 0 1.5 1.1 2.4 2.7 2.4Zm.3-1.1c-1 0-1.6-.5-1.6-1.3s.6-1.2 1.7-1.3l2.2-.1v.6c0 1.2-1 2-2.3 2Zm11.7 1v-8.1H83v3.4c-.4.4-1.1.6-2 .6-1.1 0-1.7-.6-1.7-1.7v-2.3h-1.4v2.3c0 1.7 1 3 3 3 .9 0 1.5-.3 2-.6v3.4h1.4Zm8.2 0v-8.1H91v3.4c-.4.4-1.1.6-2 .6-1.1 0-1.7-.6-1.7-1.7v-2.3H86v2.3c0 1.7 1 3 3 3 .8 0 1.4-.3 1.9-.6v3.4h1.5Zm4.2.1a3 3 0 0 0 2.7-1.5v1.4h1.3v-5.6c0-1.6-1.2-2.7-3.1-2.7-2 0-3.2 1.1-3.3 2.5h1.4c.1-.8.8-1.3 1.8-1.3 1.2 0 1.8.6 1.8 1.6v.7l-2.3.1c-1.9.1-3 1-3 2.4 0 1.5 1.1 2.4 2.7 2.4Zm.4-1.1c-1 0-1.7-.5-1.7-1.3s.7-1.2 1.7-1.3l2.2-.1v.6c0 1.2-1 2-2.2 2Zm15.5-4.5a3.3 3.3 0 0 0-3.4-2.8c-2.3 0-3.8 1.7-3.8 4.2 0 2.7 1.5 4.2 3.8 4.2 1.8 0 3.2-1.1 3.4-2.7h-1.3c-.3 1-1 1.5-2.1 1.5-1.4 0-2.4-1-2.4-3 0-1.8 1-3 2.4-3a2 2 0 0 1 2 1.6h1.4Zm9.9 5.5h1.4v-8.1h-6.6v8.1h1.3v-7h4v7Zm5.7.1a3 3 0 0 0 2.6-1.5v1.4h1.3v-5.6c0-1.6-1.2-2.7-3-2.7-2 0-3.2 1.1-3.3 2.5h1.3c.2-.8.8-1.3 1.9-1.3 1.1 0 1.8.6 1.8 1.6v.7l-2.4.1c-1.8.1-2.9 1-2.9 2.4 0 1.5 1 2.4 2.7 2.4Zm.3-1.1c-1 0-1.6-.5-1.6-1.3s.6-1.2 1.7-1.3l2.2-.1v.6c0 1.2-1 2-2.3 2Zm9.5-7.3a3 3 0 0 0-2.7 1.6v-1.4h-1.3v10.8h1.4v-4c.5.9 1.4 1.4 2.6 1.4 2 0 3.4-1.6 3.4-4.2 0-2.5-1.4-4.2-3.4-4.2Zm-.3 7.2c-1.4 0-2.3-1.1-2.3-3 0-1.8.9-3 2.3-3s2.3 1.2 2.3 3c0 1.9-.9 3-2.3 3Zm6.6 1.1v-5.8l2.7 5.6h1l2.6-5.6h.1v5.8h1.4v-8.1h-1.6l-3 6.3-2.9-6.3H143v8.1h1.3Zm15.1-2.3c-.3.7-1 1.3-2 1.3-1.5 0-2.4-1-2.4-2.6h5.8v-.6c0-2.5-1.4-4-3.6-4s-3.6 1.6-3.6 4.2c0 2.5 1.4 4.1 3.7 4.1 1.8 0 3.2-1 3.4-2.4h-1.3Zm-2.2-4.8c1.3 0 2.2 1 2.2 2.3h-4.4c0-1.3 1-2.3 2.2-2.3Zm7.9 7.2c1.8 0 3.1-1 3.1-2.5 0-.9-.6-1.6-1.6-1.8.8-.3 1.4-1 1.4-1.8 0-1.4-1-2.3-2.9-2.3-1.7 0-2.9.9-3 2.2h1.3c0-.6.8-1 1.7-1 1 0 1.5.5 1.5 1.2 0 .8-.5 1.2-1.6 1.2h-1.2v1.1h1.2c1.3 0 1.9.4 1.9 1.3 0 .8-.7 1.3-1.9 1.3-1 0-1.7-.4-1.8-1.1h-1.4c.2 1.4 1.4 2.2 3.2 2.2Zm7 0a3 3 0 0 0 2.6-1.5v1.4h1.4v-5.6c0-1.6-1.2-2.7-3.1-2.7-2 0-3.2 1.1-3.3 2.5h1.4c.1-.8.8-1.3 1.8-1.3 1.2 0 1.8.6 1.8 1.6v.7l-2.3.1c-1.9.1-3 1-3 2.4 0 1.5 1.1 2.4 2.7 2.4Zm.3-1.1c-1 0-1.6-.5-1.6-1.3s.6-1.2 1.7-1.3l2.2-.1v.6c0 1.2-1 2-2.3 2Zm10.9 1h1.3v-8.1h-1.3v3.3h-4V342h-1.4v8.1h1.4v-3.7h4v3.7Zm6.6.1c2.3 0 3.8-1.6 3.8-4.2s-1.5-4.2-3.8-4.2c-2.2 0-3.7 1.6-3.7 4.2s1.5 4.2 3.7 4.2Zm0-1.2c-1.4 0-2.4-1-2.4-3 0-1.9 1-3 2.4-3 1.5 0 2.4 1.1 2.4 3 0 2-1 3-2.4 3Zm6.7 1.1v-5.8l2.6 5.6h1l2.7-5.6v5.8h1.4v-8.1h-1.6l-2.9 6.3-3-6.3h-1.6v8.1h1.4Z"/>
    <path fill="#9E9E9E" d="M309.9 346.2h3.1v-1.3h-3.1v-3.3h-1.3v3.3h-3.1v1.3h3v3.3h1.4v-3.3Zm7.5 3.8h1.3v-11.3h-1.3l-3 2.2v1.4l3-2v9.7Zm8.1.2c2.3 0 4-1.6 4-3.9 0-2.1-1.6-3.7-3.7-3.7a3 3 0 0 0-2.6 1.2l.4-3.8h5.3v-1.3h-6.5l-.6 6.5h1.3c.5-1 1.3-1.4 2.4-1.4 1.5 0 2.6 1 2.6 2.6 0 1.5-1 2.6-2.6 2.6-1.4 0-2.4-.9-2.5-2h-1.4c.1 1.8 1.7 3.2 3.9 3.2Zm16.9-7.6h-1.5c.4-.3.7-.8.7-1.4 0-1.6-1.4-2.5-3.3-2.5-2 0-3.5 1.2-3.7 2.7h1.4c.3-1 1-1.5 2.3-1.5 1 0 2 .6 2 1.5 0 .7-.6 1.2-1.9 1.2H334v1h8.4v-1Zm-1.9 4.5c-.2 1.3-1.1 1.7-2.5 1.7-1.2 0-2.1-.6-2.1-1.5s.6-1.5 2.1-1.5h4.4v-1H334v1h1.6c-.7.4-1 1-1 1.8 0 1.5 1.3 2.5 3.5 2.5 2.1 0 3.7-1.3 3.8-3h-1.4Z"/>
    <circle cx="12" cy="344" r="9.5" fill="#FFED6C" stroke="#979797"/>
    <path fill="#000" d="M41.2 368.7V380h1.4v-4h2.6c2.1 0 3.6-1.5 3.6-3.7 0-2-1.5-3.6-3.6-3.6h-4Zm1.4 1.3h2.2c1.6 0 2.6.9 2.6 2.3 0 1.5-1 2.4-2.6 2.4h-2.2V370Zm14.8 5.7 3.5-3.8h-1.6l-3.3 3.6v-3.6h-1.4v3.6l-3.3-3.6h-1.6l3.5 3.8-3.6 4.3h1.7l3.3-4v4H56v-4l3.3 4h1.8l-3.7-4.3Zm7.2 3.3c-1 0-1.6-.5-1.6-1.3s.6-1.2 1.7-1.3l2.1-.1v.6c0 1.2-1 2-2.2 2Zm-.3 1.1a3 3 0 0 0 2.6-1.5v1.4h1.3v-5.6c0-1.6-1.2-2.7-3.1-2.7-2 0-3.1 1.1-3.2 2.5h1.3c.2-.8.8-1.3 1.9-1.3 1 0 1.7.6 1.7 1.6v.7l-2.3.1c-1.9.1-3 1-3 2.4 0 1.5 1.2 2.4 2.8 2.4Zm11.1-.1h1.4v-8.1h-1.4v3.3h-4V372h-1.3v8.1h1.3v-3.7h4v3.7Zm6.6.1c2.3 0 3.8-1.6 3.8-4.2s-1.5-4.2-3.7-4.2c-2.3 0-3.8 1.6-3.8 4.2s1.5 4.2 3.8 4.2Zm0-1.2c-1.4 0-2.3-1-2.3-3 0-1.9 1-3 2.4-3s2.3 1.1 2.3 3c0 2-.9 3-2.3 3Zm6.7 1.1 4-6h.1v6h1.3v-8.1h-1.3l-4 6h-.1v-6h-1.4v8.1h1.4Zm-.3-11.6c0 1.4 1 2.4 2.5 2.4s2.5-1 2.5-2.4h-1c0 .9-.6 1.6-1.5 1.6-1 0-1.5-.7-1.5-1.6h-1Zm13.8 8.6 2 3h1.5l-2.7-4.1 2.7-4h-1.5l-2 3-2-3h-1.4l2.7 4-2.8 4.1h1.5l2-3Zm6.8-.6.3-3.4h2.7v7h1.4v-8.1H108l-.3 4.5c0 1.5-.4 2.4-1.2 2.4h-.4v1.2h.5c1.7 0 2.2-1.3 2.4-3.6Zm9.5-3.4c1.3 0 2.2.9 2.2 2.2h-4.4c0-1.3 1-2.3 2.2-2.3Zm2.2 4.7c-.2.7-1 1.3-2 1.3-1.5 0-2.4-1-2.4-2.6h5.8v-.6c0-2.5-1.3-4-3.5-4-2.3 0-3.7 1.6-3.7 4.2 0 2.5 1.4 4.1 3.7 4.1 1.8 0 3.2-1 3.4-2.4h-1.3Zm6.4 2.4c2.4 0 3.8-1.5 3.8-4s-1.4-4-3.6-4c-1.2 0-2.3.4-2.8 1.4.3-2.4 1-3.4 3.2-3.5h.6c1 0 1.8-.3 2-.5v-1.2c-.4.3-1.3.4-2 .4h-.7c-3.1.2-4.3 2-4.3 6.5 0 3.3 1.3 5 3.8 5Zm0-1.2c-1.5 0-2.4-1-2.4-2.9 0-1.8.9-2.8 2.4-2.8s2.4 1 2.4 2.8c0 1.9-.9 3-2.4 3Zm15.3-4.5c-.2-1.4-1.4-2.7-3.4-2.7-2.2 0-3.7 1.7-3.7 4.2 0 2.6 1.5 4.2 3.7 4.2 1.9 0 3.2-1 3.4-2.6h-1.3c-.3 1-1 1.4-2 1.4-1.5 0-2.4-1.1-2.4-3 0-1.8 1-3 2.3-3 1.2 0 1.9.7 2 1.5h1.4Zm4.8 5.7c2.3 0 3.8-1.6 3.8-4.2s-1.5-4.2-3.8-4.2c-2.2 0-3.7 1.6-3.7 4.2s1.5 4.2 3.7 4.2Zm0-1.2c-1.4 0-2.3-1-2.3-3 0-1.9.9-3 2.3-3 1.5 0 2.4 1.1 2.4 3 0 2-1 3-2.4 3Zm8.8 1.2c2.3 0 3.8-1.5 3.8-4s-1.4-4-3.6-4c-1.3 0-2.3.4-2.8 1.4.3-2.4 1-3.4 3.2-3.5h.6c1 0 1.8-.3 2-.5v-1.2c-.4.3-1.3.4-2 .4h-.7c-3.1.2-4.3 2-4.3 6.5 0 3.3 1.3 5 3.8 5Zm0-1.2c-1.5 0-2.4-1-2.4-2.9 0-1.8.9-2.8 2.4-2.8s2.4 1 2.4 2.8c0 1.9-.9 3-2.4 3Zm12-4.5c-.2-1.4-1.4-2.7-3.4-2.7-2.2 0-3.7 1.7-3.7 4.2 0 2.6 1.5 4.2 3.7 4.2 1.9 0 3.2-1 3.4-2.6h-1.3c-.3 1-1 1.4-2 1.4-1.5 0-2.4-1.1-2.4-3 0-1.8 1-3 2.3-3 1.2 0 1.8.7 2 1.5h1.4Zm7.2-2.5h-6.6v1h2.7v7.1h1.3v-7h2.6v-1.1Zm4.6 1.1c.8 0 1.3.4 1.3 1 0 .9-.5 1.3-1.5 1.3h-1.8V373h2Zm-.1 3.3c1.2 0 1.8.5 1.8 1.3 0 .9-.6 1.3-1.6 1.3h-2v-2.6h1.8Zm-3.2 3.7h3.5c1.7 0 2.8-.9 2.8-2.3a2 2 0 0 0-1.7-2 2 2 0 0 0 1.3-1.7c0-1.3-.9-2.1-2.4-2.1h-3.5v8.1Zm11.1-7c1.3 0 2.1.9 2.2 2.2h-4.4c0-1.3 1-2.3 2.2-2.3Zm2.1 4.7c-.2.7-1 1.3-2 1.3-1.4 0-2.3-1-2.3-2.6h5.8v-.6c0-2.5-1.4-4-3.6-4s-3.6 1.6-3.6 4.2c0 2.5 1.4 4.1 3.7 4.1 1.8 0 3.1-1 3.4-2.4h-1.4Zm8.3 2.3h1.4v-8.1H198v3.3h-4V372h-1.3v8.1h1.3v-3.7h4v3.7Zm8.6 0h1.4v-8.1h-1.4v3.3h-4V372h-1.3v8.1h1.3v-3.7h4v3.7Zm6.7.1c2.2 0 3.7-1.6 3.7-4.2s-1.5-4.2-3.7-4.2c-2.3 0-3.8 1.6-3.8 4.2s1.5 4.2 3.8 4.2Zm0-1.2c-1.5 0-2.4-1-2.4-3 0-1.9 1-3 2.4-3s2.4 1.1 2.4 3c0 2-1 3-2.4 3Zm6.6 1.1 4-6h.1v6h1.4v-8.1H224l-4 6h-.1v-6h-1.4v8.1h1.4Zm-.3-11.6c0 1.4 1 2.4 2.5 2.4s2.5-1 2.5-2.4h-1c0 .9-.6 1.6-1.5 1.6-1 0-1.5-.7-1.5-1.6h-1ZM43.7 404.1c1.9 0 3.1-1 3.1-2.5 0-1-.5-1.6-1.6-1.9a2 2 0 0 0 1.4-1.8c0-1.3-1-2.2-2.9-2.2-1.7 0-2.9.9-3 2.2H42c0-.6.7-1 1.7-1s1.5.5 1.5 1.1c0 .8-.5 1.2-1.5 1.2h-1.3v1.1h1.3c1.2 0 1.8.4 1.8 1.4 0 .8-.7 1.3-1.8 1.3-1 0-1.7-.4-1.9-1.1h-1.3c0 1.4 1.4 2.2 3.2 2.2ZM51 403c-.9 0-1.5-.5-1.5-1.3s.6-1.2 1.7-1.3l2.1-.1v.6c0 1.2-1 2-2.2 2Zm-.2 1.1a3 3 0 0 0 2.6-1.5v1.4h1.3v-5.6c0-1.6-1.2-2.7-3.1-2.7-2 0-3.1 1.1-3.2 2.5h1.3c.2-.8.8-1.3 1.9-1.3 1 0 1.7.6 1.7 1.6v.7l-2.3.1c-1.9.1-3 1-3 2.4 0 1.5 1.2 2.4 2.8 2.4Zm8.5-4.4 3.8-3.8h-1.6l-3.5 3.6v-3.6h-1.4v8.1h1.3v-4l3.6 4h1.7l-3.9-4.3Zm8.4-2.7c.8 0 1.3.4 1.3 1 0 .9-.5 1.3-1.5 1.3h-1.8V397h2Zm-.1 3.3c1.2 0 1.7.5 1.7 1.3 0 .9-.5 1.3-1.5 1.3h-2v-2.6h1.8Zm-3.2 3.7h3.5c1.7 0 2.8-.9 2.8-2.3a2 2 0 0 0-1.7-2 2 2 0 0 0 1.3-1.7c0-1.3-1-2.1-2.4-2.1h-3.5v8.1Zm10.6-1c-1 0-1.7-.5-1.7-1.3s.6-1.2 1.7-1.3l2.2-.1v.6c0 1.2-1 2-2.3 2Zm-.4 1.1a3 3 0 0 0 2.6-1.5v1.4h1.3v-5.6c0-1.6-1.2-2.7-3-2.7-2 0-3.2 1.1-3.3 2.5h1.3c.2-.8.8-1.3 1.9-1.3 1.1 0 1.8.6 1.8 1.6v.7l-2.4.1c-1.8.1-2.9 1-2.9 2.4 0 1.5 1 2.4 2.7 2.4Zm12.5-5.7c-.2-1.4-1.4-2.7-3.4-2.7-2.2 0-3.7 1.7-3.7 4.2 0 2.6 1.5 4.2 3.8 4.2 1.8 0 3-1 3.3-2.6h-1.3c-.3 1-1 1.4-2 1.4-1.5 0-2.4-1.1-2.4-3 0-1.8 1-3 2.3-3 1.2 0 1.9.7 2 1.5h1.4Zm4.2 1.3 3.8-3.8h-1.7l-3.4 3.6v-3.6h-1.4v8.1h1.3v-4l3.6 4h1.7l-3.9-4.3Zm6.4 4.3 4-6h.1v6h1.4v-8.1h-1.4l-4 6h-.1v-6h-1.3v8.1h1.3Z"/>
    <circle cx="12" cy="386" r="9.5" fill="#FFED6C" stroke="#979797"/>
    <circle cx="12" cy="386" r="4" fill="#2C2C2C"/>
    <path fill="#000" d="M48.8 442h1.4v-11.3h-1.4l-6.1 9h-.1v-9h-1.4V442h1.4l6-9h.2v9Zm6.2.1c2 0 3.2-1 3.2-2.5 0-.9-.6-1.6-1.6-1.8.8-.3 1.4-1 1.4-1.8 0-1.4-1-2.3-3-2.3-1.6 0-2.8.9-3 2.2h1.4c0-.6.7-1 1.7-1s1.5.5 1.5 1.2c0 .8-.5 1.2-1.6 1.2h-1.2v1.1H55c1.2 0 1.8.4 1.8 1.3 0 .8-.6 1.3-1.8 1.3-1 0-1.7-.4-1.8-1.1h-1.4c.1 1.4 1.4 2.2 3.2 2.2Zm13.2-7.1v-1.1H63v8.1h1.4v-7h3.8Zm5.5-1.3a3 3 0 0 0-2.7 1.6v-1.4h-1.3v10.8h1.4v-4c.5.9 1.4 1.4 2.6 1.4 2 0 3.4-1.6 3.4-4.2 0-2.5-1.4-4.2-3.4-4.2Zm-.3 7.2c-1.4 0-2.3-1.1-2.3-3 0-1.8 1-3 2.3-3 1.5 0 2.4 1.2 2.4 3 0 1.9-1 3-2.4 3Zm10.6-1.2c-.2.7-1 1.3-2 1.3-1.4 0-2.3-1-2.3-2.6h5.8v-.6c0-2.5-1.3-4-3.5-4-2.3 0-3.7 1.6-3.7 4.2 0 2.5 1.4 4.1 3.7 4.1 1.8 0 3.2-1 3.4-2.4h-1.3Zm-2-4.8c1.2 0 2 1 2.1 2.3h-4.4c0-1.3 1-2.3 2.2-2.3Zm11.1 7.1v-8.1h-1.3v3.4c-.4.4-1.1.6-2 .6-1.1 0-1.7-.6-1.7-1.7v-2.3h-1.3v2.3c0 1.7 1 3 3 3 .8 0 1.4-.3 1.9-.6v3.4h1.4Zm7.3 0h1.4v-8.1h-1.4v3.3h-4V434h-1.3v8.1h1.3v-3.7h4v3.7Zm8.6-2.3c-.2.7-1 1.3-2 1.3-1.4 0-2.3-1-2.3-2.6h5.8v-.6c0-2.5-1.3-4-3.5-4-2.3 0-3.7 1.6-3.7 4.2 0 2.5 1.4 4.1 3.7 4.1 1.8 0 3.2-1 3.4-2.4h-1.3Zm-2-4.8c1.2 0 2 1 2.1 2.3h-4.4c0-1.3 1-2.3 2.2-2.3Zm8.5 7.1c1.8 0 2.8-.9 2.8-2.3 0-1-.7-1.8-1.7-1.9a2 2 0 0 0 1.4-1.8c0-1.3-1-2.1-2.5-2.1H112v8.1h3.5Zm-2.1-7h2c.8 0 1.2.4 1.2 1.1 0 .8-.5 1.2-1.5 1.2h-1.7V435Zm0 3.4h1.8c1.2 0 1.8.4 1.8 1.2 0 .9-.6 1.3-1.5 1.3h-2.1v-2.5Zm9.9 3.7c2.2 0 3.7-1.6 3.7-4.2s-1.5-4.2-3.8-4.2c-2.2 0-3.7 1.6-3.7 4.2s1.5 4.2 3.8 4.2Zm0-1.2c-1.5 0-2.4-1-2.4-3 0-1.9 1-3 2.3-3 1.5 0 2.4 1.1 2.4 3 0 2-1 3-2.3 3Zm6.1-10.5c0 1.4 1 2.4 2.6 2.4 1.5 0 2.5-1 2.5-2.4h-1c0 .9-.6 1.6-1.5 1.6-1 0-1.6-.7-1.6-1.6h-1Zm.5 11.6 4-6v6h1.4v-8.1H134l-4 6h-.1v-6h-1.4v8.1h1.4Zm12 0v-5.8l2.7 5.6h1l2.6-5.6v5.8h1.4v-8.1H148l-2.9 6.3-3-6.3h-1.6v8.1h1.4Zm10.3 3c1.5 0 2.2-.5 2.9-2.4l3.2-8.7h-1.5l-2.2 6.7-2.3-6.7h-1.5l3 8.1-.1.6c-.4 1-.8 1.3-1.5 1.3h-.6v1l.6.1Zm8.7-7 3.5 4h1.7l-3.9-4.3 3.8-3.8h-1.7l-3.4 3.6v-3.6h-1.4v8.1h1.3v-4Zm7.7 4 4-6h.1v6h1.4v-8.1h-1.4l-4 6v-6h-1.4v8.1h1.3Zm17.4-5.5c-.1-1.4-1.4-2.8-3.4-2.8-2.2 0-3.7 1.7-3.7 4.2 0 2.7 1.5 4.2 3.7 4.2 1.9 0 3.2-1.1 3.4-2.7h-1.3c-.2 1-1 1.5-2 1.5-1.5 0-2.4-1-2.4-3 0-1.8 1-3 2.3-3a2 2 0 0 1 2 1.6h1.4Zm10 5.5h1.3v-8.1h-6.6v8.1h1.4v-7h3.9v7Zm5.6.1a3 3 0 0 0 2.6-1.5v1.4h1.4v-5.6c0-1.6-1.2-2.7-3.1-2.7-2 0-3.2 1.1-3.3 2.5h1.3c.2-.8.9-1.3 2-1.3 1 0 1.7.6 1.7 1.6v.7l-2.3.1c-1.9.1-3 1-3 2.4 0 1.5 1.1 2.4 2.7 2.4Zm.3-1.1c-1 0-1.6-.5-1.6-1.3s.6-1.2 1.7-1.3l2.2-.1v.6c0 1.2-1 2-2.3 2Zm9.5-7.3a3 3 0 0 0-2.6 1.6v-1.4h-1.4v10.8h1.4v-4c.5.9 1.5 1.4 2.6 1.4 2 0 3.5-1.6 3.5-4.2 0-2.5-1.4-4.2-3.5-4.2Zm-.3 7.2c-1.4 0-2.3-1.1-2.3-3 0-1.8 1-3 2.3-3 1.5 0 2.4 1.2 2.4 3 0 1.9-1 3-2.4 3Zm6.6 1.1v-5.8l2.7 5.6h1l2.7-5.6v5.8h1.4v-8.1h-1.6l-3 6.3-2.9-6.3h-1.6v8.1h1.3Zm15.1-2.3c-.2.7-1 1.3-2 1.3-1.5 0-2.4-1-2.4-2.6h5.8v-.6c0-2.5-1.3-4-3.5-4-2.3 0-3.7 1.6-3.7 4.2 0 2.5 1.4 4.1 3.7 4.1 1.8 0 3.2-1 3.4-2.4h-1.3Zm-2.1-4.8c1.2 0 2 1 2.1 2.3h-4.4c0-1.3 1-2.3 2.3-2.3Zm7.8 7.2c1.9 0 3.1-1 3.1-2.5 0-.9-.5-1.6-1.6-1.8.9-.3 1.4-1 1.4-1.8 0-1.4-1-2.3-2.9-2.3-1.7 0-2.8.9-3 2.2h1.3c.1-.6.8-1 1.7-1 1 0 1.6.5 1.6 1.2 0 .8-.6 1.2-1.6 1.2h-1.3v1.1h1.3c1.2 0 1.8.4 1.8 1.3 0 .8-.7 1.3-1.8 1.3-1 0-1.7-.4-1.9-1.1h-1.3c0 1.4 1.4 2.2 3.2 2.2Zm7.1 0a3 3 0 0 0 2.6-1.5v1.4h1.3v-5.6c0-1.6-1.2-2.7-3.1-2.7-2 0-3.1 1.1-3.2 2.5h1.3c.2-.8.8-1.3 1.9-1.3 1 0 1.7.6 1.7 1.6v.7l-2.3.1c-1.9.1-3 1-3 2.4 0 1.5 1.2 2.4 2.8 2.4Zm.3-1.1c-1 0-1.7-.5-1.7-1.3s.7-1.2 1.8-1.3l2.1-.1v.6c0 1.2-1 2-2.2 2Zm10.8 1h1.4v-8.1h-1.4v3.3h-4V434h-1.3v8.1h1.3v-3.7h4v3.7Zm6.7.1c2.2 0 3.7-1.6 3.7-4.2s-1.5-4.2-3.7-4.2c-2.3 0-3.8 1.6-3.8 4.2s1.5 4.2 3.8 4.2Zm0-1.2c-1.5 0-2.4-1-2.4-3 0-1.9 1-3 2.4-3s2.3 1.1 2.3 3c0 2-.9 3-2.3 3Zm6.6 1.1v-5.8l2.7 5.6h1l2.6-5.6v5.8h1.4v-8.1h-1.6l-2.9 6.3-3-6.3h-1.6v8.1h1.4Z"/>
    <circle cx="12" cy="436" r="9.5" fill="#FFED6C" stroke="#979797"/>
    <path fill="#9E9E9E" d="M309.9 442.2h3.1v-1.3h-3.1v-3.3h-1.3v3.3h-3.1v1.3h3v3.3h1.4v-3.3Zm7.5 3.8h1.3v-11.3h-1.3l-3 2.2v1.4l3-2v9.7Zm8.1.2c2.3 0 4-1.6 4-3.9 0-2.1-1.6-3.7-3.7-3.7a3 3 0 0 0-2.6 1.2l.4-3.8h5.3v-1.3h-6.5l-.6 6.5h1.3c.5-1 1.3-1.4 2.4-1.4 1.5 0 2.6 1 2.6 2.6 0 1.5-1 2.6-2.6 2.6-1.4 0-2.4-.9-2.5-2h-1.4c.1 1.8 1.7 3.2 3.9 3.2Zm16.9-7.6h-1.5c.4-.3.7-.8.7-1.4 0-1.6-1.4-2.5-3.3-2.5-2 0-3.5 1.2-3.7 2.7h1.4c.3-1 1-1.5 2.3-1.5 1 0 2 .6 2 1.5 0 .7-.6 1.2-1.9 1.2H334v1h8.4v-1Zm-1.9 4.5c-.2 1.3-1.1 1.7-2.5 1.7-1.2 0-2.1-.6-2.1-1.5s.6-1.5 2.1-1.5h4.4v-1H334v1h1.6c-.7.4-1 1-1 1.8 0 1.5 1.3 2.5 3.5 2.5 2.1 0 3.7-1.3 3.8-3h-1.4Z"/>
    <g clip-path="url(#b)">
      <path fill="#000" d="M48.9 480.6c0-2-1.5-3.4-3.6-3.4h-2.7V474h5.2v-1.3h-6.6V484h4c2.2 0 3.7-1.4 3.7-3.4Zm-6.3 2.1v-4.2h2.3c1.6 0 2.5.8 2.5 2.1 0 1.4-.9 2.1-2.5 2.1h-2.3Zm13.6-1c-.2.7-1 1.3-2 1.3-1.5 0-2.4-1-2.4-2.6h5.8v-.6c0-2.5-1.3-4-3.5-4-2.3 0-3.7 1.6-3.7 4.2 0 2.5 1.4 4.1 3.7 4.1 1.8 0 3.2-1 3.4-2.4h-1.3Zm-2.2-4.8c1.3 0 2.2 1 2.2 2.3h-4.4c0-1.3 1-2.3 2.2-2.3Zm7 3.5.3-3.4H64v7h1.4v-8.1H60l-.3 4.5c0 1.5-.4 2.4-1.2 2.4h-.4v1.2h.5c1.7 0 2.3-1.3 2.4-3.6Zm13.2 3.6h1.4v-8.1h-1.4v8.1Zm-7 0h3c1.8 0 3-1 3-2.8 0-1.7-1.2-2.7-3-2.7h-1.6v-2.6h-1.3v8.1Zm3-4.4c1 0 1.7.6 1.7 1.6s-.7 1.7-1.8 1.7h-1.5v-3.3h1.5Zm8.2-7.2c0 1.4 1 2.4 2.5 2.4s2.5-1 2.5-2.4h-1c0 .9-.6 1.6-1.5 1.6-1 0-1.5-.7-1.5-1.6h-1Zm.4 11.6 4-6h.1v6h1.4v-8.1H83l-4 6h-.2v-6h-1.3v8.1h1.3Zm17.4-5.5c-.1-1.4-1.3-2.8-3.4-2.8-2.2 0-3.7 1.7-3.7 4.2 0 2.7 1.5 4.2 3.7 4.2 1.9 0 3.2-1.1 3.5-2.7h-1.4c-.2 1-1 1.5-2 1.5-1.5 0-2.4-1-2.4-3 0-1.8 1-3 2.3-3a2 2 0 0 1 2.1 1.6h1.3Zm6.2 1.5 3.5 4h1.7l-3.9-4.3 3.8-3.8h-1.7l-3.4 3.6h-.1v-3.6h-1.4v8.1h1.4v-4Zm6.9 7c1.4 0 2.1-.5 2.8-2.4l3.2-8.7h-1.4l-2.3 6.7-2.3-6.7H108l3 8.1-.2.6c-.3 1-.7 1.3-1.5 1.3h-.5v1l.6.1Zm12.6-3h1.3v-8.1H122v3.3h-4V476h-1.4v8.1h1.4v-3.7h4v3.7Zm4.1 0 3.4-4v4h1.3v-4h.1l3.3 4h1.7l-3.6-4.3 3.5-3.8h-1.6l-3.3 3.6v-3.6h-1.4v3.6l-3.3-3.6h-1.7l3.6 3.8-3.6 4.3h1.7Zm11.5 3c1.5 0 2.1-.5 2.8-2.4l3.2-8.7h-1.4l-2.2 6.7-2.3-6.7H136l3 8.1-.2.6c-.3 1-.7 1.3-1.5 1.3h-.5v1l.6.1Zm13.2-11.1H144v1h2.6v7.1h1.4v-7h2.6v-1.1Zm4.5 8.2c2.2 0 3.7-1.6 3.7-4.2s-1.5-4.2-3.7-4.2c-2.3 0-3.8 1.6-3.8 4.2s1.5 4.2 3.8 4.2Zm0-1.2c-1.5 0-2.4-1-2.4-3 0-1.9 1-3 2.4-3s2.3 1.1 2.3 3c0 2-.9 3-2.3 3Zm6.6 1.1v-5.8l2.7 5.6h1l2.6-5.6v5.8h1.4v-8.1H168l-3 6.3-2.9-6.3h-1.6v8.1h1.3Z"/>
      <circle cx="12" cy="478" r="9.5" fill="#FFED6C" stroke="#979797"/>
      <path fill="#9E9E9E" d="M310.5 482.2h3.2v-1.3h-3.2v-3.3h-1.3v3.3h-3v1.3h3v3.3h1.3v-3.3Zm7.5 3.8h1.4v-11.3H318l-3 2.2v1.4l3-2v9.7Zm8.2.2c2.6 0 4.1-2.3 4.1-5.8 0-3.6-1.5-5.9-4.1-5.9-2.6 0-4.2 2.3-4.2 5.9 0 3.5 1.6 5.8 4.2 5.8Zm0-1.2c-1.8 0-2.7-1.8-2.7-4.6s1-4.6 2.7-4.6c1.7 0 2.7 1.8 2.7 4.6s-1 4.6-2.7 4.6Zm17.2-6.4h-1.5c.4-.3.7-.8.7-1.4 0-1.6-1.4-2.5-3.3-2.5-2 0-3.5 1.2-3.7 2.7h1.4c.3-1 1-1.5 2.3-1.5 1 0 2 .6 2 1.5 0 .7-.6 1.2-1.9 1.2H335v1h8.4v-1Zm-1.9 4.5c-.2 1.3-1.1 1.7-2.5 1.7-1.2 0-2.1-.6-2.1-1.5s.6-1.5 2.1-1.5h4.4v-1H335v1h1.6c-.7.4-1 1-1 1.8 0 1.5 1.3 2.5 3.5 2.5 2.1 0 3.7-1.3 3.8-3h-1.4Z"/>
    </g>
    <g clip-path="url(#c)">
      <path fill="#000" d="M48.9 514.6c0-2-1.5-3.4-3.6-3.4h-2.7V508h5.2v-1.3h-6.6V518h4c2.2 0 3.7-1.4 3.7-3.4Zm-6.3 2.1v-4.2h2.3c1.6 0 2.5.8 2.5 2.1 0 1.4-.9 2.1-2.5 2.1h-2.3Zm13.6-1c-.2.7-1 1.3-2 1.3-1.5 0-2.4-1-2.4-2.6v-.1h5.8v-.5c0-2.5-1.3-4-3.5-4-2.3 0-3.7 1.6-3.7 4.2 0 2.5 1.4 4.1 3.7 4.1 1.8 0 3.2-1 3.4-2.4h-1.3Zm-2.2-4.8c1.3 0 2.2 1 2.2 2.3h-4.4c0-1.3 1-2.3 2.2-2.3Zm7 3.5.3-3.4H64v7h1.4v-8.1H60l-.3 4.5c0 1.5-.4 2.4-1.2 2.4h-.4v1.2h.5c1.7 0 2.3-1.3 2.4-3.6Zm13.2 3.6h1.4v-8.1h-1.4v8.1Zm-7 0h3c1.8 0 3-1 3-2.8 0-1.7-1.2-2.7-3-2.7h-1.6v-2.6h-1.3v8.1Zm3-4.4c1 0 1.7.6 1.7 1.6s-.7 1.7-1.8 1.7h-1.5v-3.3h1.5Zm8.2-7.2c0 1.4 1 2.4 2.5 2.4s2.5-1 2.5-2.4h-1c0 .9-.6 1.6-1.5 1.6-1 0-1.5-.7-1.5-1.6h-1Zm.4 11.6 4-6h.1v6h1.4v-8.1H83l-4 6h-.2v-6h-1.3v8.1h1.3Zm17.4-5.5c-.1-1.4-1.3-2.8-3.4-2.8-2.2 0-3.7 1.7-3.7 4.2 0 2.7 1.5 4.2 3.7 4.2 1.9 0 3.2-1.1 3.5-2.7h-1.4c-.2 1-1 1.5-2 1.5-1.5 0-2.4-1-2.4-3 0-1.8 1-3 2.3-3a2 2 0 0 1 2.1 1.6h1.3Zm8.1 5.6c2.3 0 3.8-1.6 3.8-4.2s-1.5-4.2-3.8-4.2c-2.2 0-3.8 1.6-3.8 4.2s1.6 4.2 3.8 4.2Zm0-1.2c-1.4 0-2.4-1-2.4-3 0-1.9 1-3 2.4-3 1.5 0 2.4 1.1 2.4 3 0 2-1 3-2.4 3Zm8.7 1.1c1.8 0 2.9-.9 2.9-2.3 0-1-.7-1.8-1.7-1.9a2 2 0 0 0 1.3-1.8c0-1.3-1-2.1-2.4-2.1h-3.5v8.1h3.5Zm-2-7h1.9c.8 0 1.3.4 1.3 1.1 0 .8-.5 1.2-1.5 1.2H111V511Zm0 3.4h1.8c1.2 0 1.7.4 1.7 1.2 0 .9-.5 1.3-1.5 1.3h-2v-2.5Zm13.2-1.9a3.3 3.3 0 0 0-3.4-2.8c-2.3 0-3.8 1.7-3.8 4.2 0 2.7 1.5 4.2 3.8 4.2 1.8 0 3.2-1.1 3.4-2.7H123c-.3 1-1 1.5-2 1.5-1.5 0-2.5-1-2.5-3 0-1.8 1-3 2.4-3a2 2 0 0 1 2 1.6h1.4Zm5.8 5.5h1.4v-8.1h-2.9c-1.8 0-3 1-3 2.7 0 1 .6 2 1.8 2.3L125 518h1.6l2-2.9h1.5v2.9Zm-1.5-4c-1 0-1.7-.6-1.7-1.5 0-1 .7-1.5 1.7-1.5h1.6v3h-1.6Zm10.2 4h1.3v-8.1h-1.3v3.3h-4V510h-1.4v8.1h1.4v-3.7h4v3.7Zm10.3 0h1.3v-8.1h-1.4v8.1Zm-7 0h2.8c1.9 0 3-1 3-2.8 0-1.7-1.1-2.7-3-2.7h-1.5v-2.6H142v8.1Zm2.8-4.4c1 0 1.7.6 1.7 1.6s-.6 1.7-1.7 1.7h-1.5v-3.3h1.5Zm8.7 4.4v-5.8l2.7 5.6h1l2.6-5.6h.1v5.8h1.3v-8.1h-1.5l-3 6.3-2.9-6.3h-1.6v8.1h1.3Zm11 0 4-6h.1v6h1.4v-8.1h-1.4l-4 6v-6h-1.4v8.1h1.3Zm13.5-3 2 3h1.5l-2.7-4.1 2.7-4H180l-2 3-1.9-3h-1.5l2.7 4-2.8 4.1h1.5l2-3Zm6.9-.6.2-3.4h2.7v7h1.4v-8.1h-5.3l-.3 4.5c-.1 1.5-.4 2.4-1.2 2.4h-.5v1.2h.5c1.7 0 2.3-1.3 2.5-3.6Zm9.6 3.7c2.2 0 3.8-1.6 3.8-4.2s-1.6-4.2-3.8-4.2c-2.3 0-3.8 1.6-3.8 4.2s1.6 4.2 3.8 4.2Zm0-1.2c-1.4 0-2.4-1-2.4-3 0-1.9 1-3 2.4-3s2.4 1.1 2.4 3c0 2-1 3-2.4 3ZM205 518h1.4v-8.1h-6.6v8.1h1.3v-7h4v7Zm3.3 0h2.9c1.9 0 3-1 3-2.8 0-1.7-1.1-2.7-3-2.7h-1.5v-2.6h-1.4v8.1Zm2.9-4.4c1 0 1.7.6 1.7 1.6s-.7 1.7-1.7 1.7h-1.5v-3.3h1.5Zm8.9 4.4h1.4v-8.1h-3c-1.8 0-3 1-3 2.7 0 1 .7 2 1.8 2.3l-2.2 3.1h1.5l2.1-2.9h1.4v2.9Zm-1.5-4c-1 0-1.7-.6-1.7-1.5 0-1 .6-1.5 1.7-1.5h1.5v3h-1.5Zm6.1 4v-5.8l2.7 5.6h1l2.7-5.6v5.8h1.4v-8.1h-1.6l-3 6.3-2.9-6.3h-1.6v8.1h1.3Zm11 0 4-6h.1v6h1.4v-8.1h-1.3l-4 6h-.2v-6h-1.3v8.1h1.3Z"/>
      <circle cx="12" cy="512" r="9.5" fill="#FFED6C" stroke="#979797"/>
      <path fill="#9E9E9E" d="M313.8 516v-1.2h-5v1.3h5Zm4.2 4h1.4v-11.3H318l-3 2.2v1.5l3-2.2v9.8Zm8.2.2c2.6 0 4.1-2.3 4.1-5.8 0-3.6-1.5-5.9-4.1-5.9-2.6 0-4.2 2.3-4.2 5.9 0 3.5 1.6 5.8 4.2 5.8Zm0-1.2c-1.8 0-2.8-1.8-2.8-4.6s1-4.6 2.8-4.6c1.7 0 2.7 1.8 2.7 4.6s-1 4.6-2.7 4.6Zm8.8-5.3h8.2v-1h-1.6c.5-.4.8-1 .8-1.5 0-1.6-1.3-2.6-3.3-2.6-1.9 0-3.2 1-3.3 2.5h1.3c.1-.8 1-1.4 2-1.4 1.1 0 2 .7 2 1.6 0 .6-.3 1-.8 1.4h-5.2v1Zm4.1 6.4c2 0 3.4-1 3.6-2.6h-1.4c-.2 1-1 1.4-2.2 1.4-1.2 0-2-.6-2-1.6 0-.6.3-1.1.8-1.4h5.3v-1h-8.1v1h1.5c-.6.4-1 1-1 1.6 0 1.6 1.4 2.6 3.5 2.6Z"/>
    </g>
    <path fill="#000" d="M5.8 12.2c2.5 0 4.2-1.3 4.7-3.5H9C8.7 10.1 7.5 11 5.8 11c-2.2 0-3.6-1.8-3.6-4.5 0-2.8 1.4-4.6 3.6-4.6 1.6 0 3 1 3.3 2.5h1.4C10 2 8.3.5 5.8.5c-3 0-5 2.3-5 5.9 0 3.5 1.9 5.8 5 5.8Zm8.7-.1a3 3 0 0 0 2.6-1.5V12h1.3V6.4c0-1.6-1.2-2.7-3.1-2.7-2 0-3.1 1.1-3.2 2.5h1.3c.2-.8.8-1.3 1.9-1.3 1 0 1.7.6 1.7 1.6v.7l-2.3.1c-1.9.1-3 1-3 2.4 0 1.5 1.2 2.4 2.8 2.4Zm.3-1.1c-1 0-1.6-.5-1.6-1.3s.6-1.2 1.7-1.3l2.1-.2V9c0 1.2-1 2-2.2 2Zm7.7-2.6.2-3.4h2.8v7h1.3V3.9h-5.3l-.3 4.5c-.1 1.5-.4 2.4-1.2 2.4h-.4V12h.4c1.8 0 2.3-1.3 2.5-3.6ZM33.2 12h1.4V3.9h-3c-1.8 0-3 1-3 2.7 0 1 .7 2 1.8 2.3L28.2 12h1.5l2-2.9h1.5V12Zm-1.5-4c-1 0-1.8-.6-1.8-1.5 0-1 .7-1.5 1.8-1.5h1.5v3h-1.5Zm6.1 4V6.2l2.7 5.6h1l2.7-5.6V12h1.4V3.9H44l-3 6.3-2.9-6.3h-1.6V12h1.3Zm11 0 4-6h.1v6h1.4V3.9h-1.4l-4 6V4h-1.4v8h1.3Zm8.2 2.2 1.1-4h-1.4l-.8 4H57ZM68 12h1.4V3.9h-6.7V12h1.4V5h4v7Zm8.7-2.3c-.2.7-1 1.3-2 1.3-1.5 0-2.4-1-2.4-2.6v-.1H78v-.5c0-2.5-1.3-4-3.5-4-2.3 0-3.7 1.6-3.7 4.2 0 2.5 1.4 4.1 3.7 4.1 1.8 0 3.2-1 3.4-2.4h-1.3Zm-2.2-4.8c1.3 0 2.2 1 2.2 2.3h-4.4c0-1.3 1-2.3 2.2-2.3ZM84.9 12h1.4V3.9h-6.7V12H81V5h3.9v7Zm8.5 0h1.4V3.9h-6.6V12h1.3V5h4v7Zm8.7-2.3c-.2.7-1 1.3-2 1.3-1.5 0-2.4-1-2.4-2.6v-.1h5.8v-.5c0-2.5-1.3-4-3.5-4-2.3 0-3.7 1.6-3.7 4.2 0 2.5 1.4 4.1 3.8 4.1 1.7 0 3.1-1 3.3-2.4h-1.3ZM100 4.9c1.3 0 2.1 1 2.1 2.3h-4.4C97.8 6 98.7 5 100 5Zm9-1.2a3 3 0 0 0-2.6 1.5V4H105v10.8h1.3v-4c.5.9 1.5 1.4 2.6 1.4 2 0 3.5-1.6 3.5-4.2 0-2.5-1.4-4.2-3.5-4.2Zm-.3 7.2c-1.3 0-2.3-1.2-2.3-3s1-3 2.3-3c1.5 0 2.4 1.2 2.4 3 0 1.9-1 3-2.3 3Zm8.7 1.2c2.2 0 3.7-1.6 3.7-4.2s-1.5-4.2-3.7-4.2c-2.3 0-3.8 1.6-3.8 4.2s1.5 4.2 3.8 4.2Zm0-1.2c-1.4 0-2.4-1-2.4-3 0-1.9 1-3 2.4-3s2.4 1.1 2.4 3c0 2-1 3-2.4 3ZM128 12h1.4V3.9H128v3.3h-4V4h-1.3v8h1.3V8.3h4V12Zm4.6 0 4-6h.1v6h1.4V3.9h-1.3l-4.1 6V4h-1.4v8h1.3Zm8.3 2.2 1-4h-1.4l-.8 4h1.2ZM150 12c1.8 0 2.9-.9 2.9-2.3 0-1-.7-1.8-1.7-1.9a2 2 0 0 0 1.3-1.8c0-1.3-1-2.1-2.5-2.1h-3.4V12h3.5Zm-2-7h1.8c.9 0 1.3.4 1.3 1.1 0 .8-.4 1.2-1.5 1.2H148V5Zm0 3.4h1.7c1.2 0 1.8.4 1.8 1.2 0 .9-.5 1.3-1.5 1.3h-2V8.4Zm11.8 1.3c-.2.7-1 1.3-2 1.3-1.5 0-2.4-1-2.4-2.6v-.1h5.8v-.5c0-2.5-1.3-4-3.5-4S154 5.3 154 8c0 2.5 1.4 4.1 3.8 4.1 1.7 0 3.1-1 3.3-2.4h-1.3Zm-2.1-4.8c1.3 0 2.1 1 2.1 2.3h-4.4c.1-1.3 1-2.3 2.3-2.3Zm10.7-1h-6.6v1h2.6V12h1.4V5h2.6V3.9Zm7.5 8.1V3.9h-1.4v3.4c-.4.4-1.1.6-2 .6-1.1 0-1.7-.6-1.7-1.7V3.9h-1.3v2.3c0 1.7 1 3 3 3 .8 0 1.4-.3 1.9-.6V12h1.5Zm3.2 0 4-6h.1v6h1.4V3.9h-1.4l-4 6V4h-1.4v8h1.3Zm12.7 0h1.4V3.9h-1.4v3.3h-4V4h-1.3v8h1.3V8.3h4V12Zm5.7.1a3 3 0 0 0 2.6-1.5V12h1.3V6.4c0-1.6-1.2-2.7-3.1-2.7-2 0-3.1 1.1-3.2 2.5h1.3c.2-.8.8-1.3 1.9-1.3 1 0 1.7.6 1.7 1.6v.7l-2.3.1c-1.9.1-3 1-3 2.4 0 1.5 1.2 2.4 2.8 2.4Zm.3-1.1c-1 0-1.6-.5-1.6-1.3s.6-1.2 1.7-1.3l2.1-.2V9c0 1.2-1 2-2.2 2Zm6.3 3.2 1.1-4h-1.4l-.8 4h1.1Zm9.1-2.1c2.3 0 3.8-1.6 3.8-4.2s-1.5-4.2-3.8-4.2c-2.2 0-3.7 1.6-3.7 4.2s1.5 4.2 3.7 4.2Zm0-1.2c-1.4 0-2.4-1-2.4-3 0-1.9 1-3 2.4-3 1.5 0 2.4 1.1 2.4 3 0 2-1 3-2.4 3ZM222 12c1.7 0 2.8-.9 2.8-2.3 0-1-.7-1.8-1.7-1.9a2 2 0 0 0 1.3-1.8c0-1.3-.9-2.1-2.4-2.1h-3.5V12h3.5Zm-2.1-7h1.9c.8 0 1.3.4 1.3 1.1 0 .8-.5 1.2-1.5 1.2h-1.7V5Zm0 3.4h1.8c1.2 0 1.7.4 1.7 1.2 0 .9-.5 1.3-1.5 1.3h-2V8.4Zm9.8 3.7c2.3 0 3.8-1.6 3.8-4.2s-1.5-4.2-3.8-4.2c-2.2 0-3.7 1.6-3.7 4.2s1.5 4.2 3.7 4.2Zm0-1.2c-1.4 0-2.4-1-2.4-3 0-1.9 1-3 2.4-3 1.5 0 2.4 1.1 2.4 3 0 2-1 3-2.4 3ZM235 12h10v2.2h1.4V11H245V4h-1.3v7h-3V4h-1.4v7h-3V4H235v8Zm13.9 0 4-6h.1v6h1.4V3.9H253l-4 6V4h-1.5v8h1.4Zm8.2 2.2 1-4h-1.4l-.7 4h1.1Zm12.5-7.7a3.3 3.3 0 0 0-3.4-2.8c-2.3 0-3.8 1.7-3.8 4.2 0 2.7 1.5 4.2 3.8 4.2 1.8 0 3.2-1.1 3.4-2.7h-1.3c-.3 1-1 1.5-2.1 1.5-1.4 0-2.4-1-2.4-3 0-1.8 1-3 2.4-3a2 2 0 0 1 2 1.6h1.4Zm4.8 5.6c2.2 0 3.7-1.6 3.7-4.2s-1.5-4.2-3.7-4.2c-2.3 0-3.8 1.6-3.8 4.2s1.5 4.2 3.8 4.2Zm0-1.2c-1.5 0-2.4-1-2.4-3 0-1.9 1-3 2.4-3s2.4 1.1 2.4 3c0 2-1 3-2.4 3Zm5.7 4.1c1.5 0 2.1-.5 2.8-2.4l3.2-8.7h-1.4l-2.2 6.7-2.3-6.7h-1.5l3 8.1-.2.6c-.3 1-.7 1.3-1.4 1.3h-.6v1l.6.1Zm13.8-8.5a3.3 3.3 0 0 0-3.4-2.8c-2.3 0-3.8 1.7-3.8 4.2 0 2.7 1.5 4.2 3.8 4.2 1.8 0 3.2-1.1 3.4-2.7h-1.3c-.3 1-1 1.5-2.1 1.5-1.4 0-2.4-1-2.4-3 0-1.8 1-3 2.4-3a2 2 0 0 1 2 1.6h1.4ZM304 12h1.3V3.9h-1.4v3.3h-4V4h-1.3v8h1.3V8.3h4V12Zm5.6.1a3 3 0 0 0 2.6-1.5V12h1.3V6.4c0-1.6-1.2-2.7-3.1-2.7-2 0-3.1 1.1-3.2 2.5h1.3c.2-.8.8-1.3 1.9-1.3 1 0 1.7.6 1.7 1.6v.7l-2.3.1c-1.9.1-3 1-3 2.4 0 1.5 1.2 2.4 2.8 2.4Zm.3-1.1c-1 0-1.6-.5-1.6-1.3s.6-1.2 1.7-1.3l2.1-.2V9c0 1.2-1 2-2.2 2ZM4.5 36c1.7 0 2.7-.9 2.7-2.3 0-1-.6-1.8-1.7-1.9A2 2 0 0 0 6.9 30c0-1.3-1-2.1-2.5-2.1H1V36h3.5Zm-2.2-7h2c.8 0 1.2.4 1.2 1.1 0 .8-.5 1.2-1.5 1.2H2.3V29Zm0 3.4h1.8c1.2 0 1.8.4 1.8 1.2 0 .9-.5 1.3-1.5 1.3h-2v-2.5ZM15.8 36H17v-8.1h-1.4V36Zm-7 0h2.9c1.8 0 3-1 3-2.8 0-1.7-1.2-2.7-3-2.7h-1.5v-2.6H8.8V36Zm2.9-4.4c1 0 1.7.6 1.7 1.6s-.7 1.7-1.7 1.7h-1.5v-3.3h1.5Zm10.8 4.5c2.3 0 3.8-1.5 3.8-4s-1.4-4-3.6-4c-1.3 0-2.3.4-2.8 1.4.3-2.4 1-3.4 3.2-3.5h.6c1 0 1.8-.3 2-.5v-1.2a6 6 0 0 1-2 .4H23c-3.1.2-4.3 2-4.3 6.5 0 3.3 1.3 5 3.8 5Zm0-1.2C21 35 20 34 20 32c0-1.8.9-2.8 2.4-2.8s2.4 1 2.4 2.8c0 1.9-.9 3-2.4 3Zm8.7 1.2c2.2 0 3.7-1.6 3.7-4.2s-1.5-4.2-3.7-4.2c-2.3 0-3.8 1.6-3.8 4.2s1.5 4.2 3.8 4.2Zm0-1.2c-1.5 0-2.4-1-2.4-3 0-1.9 1-3 2.4-3s2.3 1.1 2.3 3c0 2-.9 3-2.3 3Zm9.2-7.2a3 3 0 0 0-2.6 1.6v-1.4h-1.3v10.8h1.3v-4c.5.9 1.5 1.4 2.6 1.4 2 0 3.5-1.6 3.5-4.2 0-2.5-1.4-4.2-3.5-4.2Zm-.3 7.2c-1.4 0-2.3-1.1-2.3-3 0-1.8 1-3 2.3-3 1.5 0 2.4 1.2 2.4 3 0 1.9-1 3-2.4 3Zm5.7 3.3 1-4h-1.4l-.7 4h1.1Zm8.6-5.2 2 3h1.4l-2.7-4.1 2.8-4h-1.5l-2 3-2-3H51l2.7 4L51 36h1.5l2-3Zm6.8-.6.3-3.4h2.7v7h1.3v-8.1h-5.3l-.3 4.5c0 1.5-.4 2.4-1.2 2.4h-.4V36h.5c1.7 0 2.2-1.3 2.4-3.6Zm11.7 1.3c-.3.7-1 1.3-2 1.3-1.5 0-2.4-1-2.4-2.6v-.1h5.8v-.5c0-2.5-1.3-4-3.5-4-2.3 0-3.7 1.6-3.7 4.2 0 2.5 1.4 4.1 3.7 4.1 1.8 0 3.2-1 3.4-2.4h-1.3Zm-2.2-4.8c1.3 0 2.2 1 2.2 2.3h-4.4c0-1.3 1-2.3 2.2-2.3Zm8.6 7.2c2.4 0 3.8-1.5 3.8-4s-1.4-4-3.6-4c-1.2 0-2.3.4-2.8 1.4.3-2.4 1-3.4 3.2-3.5h.6c1 0 1.8-.3 2-.5v-1.2c-.4.3-1.3.4-2 .4h-.6c-3.2.2-4.4 2-4.4 6.5 0 3.3 1.3 5 3.8 5Zm0-1.2C77.8 35 77 34 77 32c0-1.8.9-2.8 2.4-2.8s2.4 1 2.4 2.8c0 1.9-.9 3-2.4 3Zm9.1 3.2V36h6.3v2.1h1.2V35h-1.3v-7h-5.5l-.4 4.5c0 1-.3 2-1 2.5h-.6v3h1.3Zm4.9-3.2h-4c.4-.6.6-1.5.7-2.5l.3-3.4h3v5.9Zm7.2 1.2c2.3 0 3.8-1.6 3.8-4.2s-1.5-4.2-3.8-4.2c-2.2 0-3.7 1.6-3.7 4.2s1.5 4.2 3.7 4.2Zm0-1.2c-1.4 0-2.4-1-2.4-3 0-1.9 1-3 2.4-3 1.5 0 2.4 1.1 2.4 3 0 2-1 3-2.4 3Zm6.7 1.1v-5.8l2.6 5.6h1l2.7-5.6V36h1.4v-8.1h-1.6l-2.9 6.3-3-6.3h-1.6V36h1.4Zm12 .1a3 3 0 0 0 2.6-1.5V36h1.3v-5.6c0-1.6-1.2-2.7-3-2.7-2 0-3.2 1.1-3.3 2.5h1.3c.2-.8.8-1.3 1.9-1.3 1.1 0 1.8.6 1.8 1.6v.7l-2.4.1c-1.8.1-3 1-3 2.4 0 1.5 1.2 2.4 2.8 2.4Zm.3-1.1c-1 0-1.6-.5-1.6-1.3s.6-1.2 1.7-1.3l2.2-.1v.6c0 1.2-1 2-2.3 2Zm5.5 1h10v-8.1h-1.3v7h-3v-7h-1.4v7h-3v-7H125V36Zm17.3 0h1.3v-8.1h-1.3v3.3h-4V28h-1.4v8h1.4v-3.7h4V36Zm4.6 0 4-6h.1v6h1.4v-8.1H151l-4 6v-6h-1.5V36h1.4Zm8.3-11.6c0 1.4 1 2.4 2.5 2.4s2.5-1 2.5-2.4h-1c0 .9-.6 1.6-1.5 1.6-1 0-1.5-.7-1.5-1.6h-1Zm.4 11.6 4-6h.1v6h1.4v-8.1h-1.4l-4 6v-6h-1.4V36h1.3Zm8.2 2.2 1.1-4h-1.4l-.8 4h1.1Zm7.1-2.2 4-6h.1v6h1.4v-8.1H175l-4 6v-6h-1.5V36h1.4Zm16.6-8.1h-6.6v1h2.6V36h1.4v-7h2.6v-1.1Zm1.4 10.2V36h6.3v2.1h1.3V35h-1.3v-7h-5.6l-.3 4.5c-.1 1-.4 2-1 2.5h-.7v3h1.3Zm5-3.2h-4c.3-.6.6-1.5.6-2.5l.3-3.4h3v5.9Z"/>
  </g>
  <defs>
    <clipPath id="a">
      <path fill="#fff" d="M0 0h343v523.5H0z" transform="translate(0 .5)"/>
    </clipPath>
    <clipPath id="b">
      <path fill="#fff" d="M0 0h343v24H0z" transform="translate(0 466)"/>
    </clipPath>
    <clipPath id="c">
      <path fill="#fff" d="M0 0h343v24H0z" transform="translate(0 500)"/>
    </clipPath>
  </defs>
</svg>