
<svg xmlns="http://www.w3.org/2000/svg" viewBox="0 0 40 40">
  <path fill-rule="evenodd" d="M6.59 21.15a2.84 2.84 0 0 1-.45-.6c-.6-1.05-.47-2.33.13-3.53.55-1.11 2-3.24 3.9-5.33 1.87-2.06 4.33-4.23 6.98-5.32a4.2 4.2 0 0 1 2.43-.6 2.8 2.8 0 0 1 1.76.87c1.27-.22 2.88-.39 4.39-.32.97.04 1.97.18 2.84.52.87.33 1.74.9 2.19 1.9.2.46.34.94.41 1.44.78.76 1.7 1.89 2.33 3.2.73 1.54 1.14 3.54.1 5.46l-.03.04a2.13 2.13 0 0 1-1.93 1.05 3.92 3.92 0 0 1-1.71-.52 9.52 9.52 0 0 1-1.48-1 6.2 6.2 0 0 1-3.83.84c-.17.73-.6 1.47-1.45 2l-1.28.73c-.62.35-.83.46-1.38 1.02-.42.43-.9.7-1.36.86.22 2.06-.3 3.58-1.03 4.49.4.48.79 1.04 1.08 1.6.25.47.5 1.08.5 1.71a2.14 2.14 0 0 1-1.09 1.96c-1.91 1.05-3.9.63-5.43-.12a11.6 11.6 0 0 1-3.56-2.8 3.78 3.78 0 0 1-2.73-2.47 9.45 9.45 0 0 1-.54-2.85c-.07-1.45.05-2.98.24-4.23ZM18.3 8.59c.59-.33.9-.35 1.02-.34a.4.4 0 0 1 .04 0l.01.08c.07.32.26.58.51.75a4.14 4.14 0 0 1 .14.67l1.93 7.8.07.21c0 .24.06.46.18.65v.16a.7.7 0 0 1-.08.3.65.65 0 0 1-.25.23c-.38.24-.7.42-1 .58a8.1 8.1 0 0 0-2.14 1.56 1.12 1.12 0 0 1-.7.33c-.15-.04-.3-.06-.47-.04-1.14-.33-2.84-.8-4.44-1.19-.84-.2-1.65-.4-2.35-.53-.6-.12-1.2-.22-1.64-.23a1.25 1.25 0 0 0-.88-.64c.01-.19.08-.45.26-.81a24.7 24.7 0 0 1 3.5-4.75c1.8-1.98 3.99-3.85 6.15-4.72l.14-.07ZM8.99 22.07c-.13 1-.2 2.13-.14 3.17.05.84.17 1.56.38 2.09.2.53.43.73.6.8.77.35 1.9.32 3.19 0a13 13 0 0 0 3.06-1.25l.14-.17c.1-.15.23-.38.32-.69.15-.49.23-1.2.1-2.16-1.12-.31-2.67-.73-4.12-1.1-.82-.2-1.59-.37-2.23-.5a8.6 8.6 0 0 0-1.3-.19Zm15.33-5.36c.96.13 1.67.04 2.15-.12.28-.09.49-.2.64-.3a1.24 1.24 0 0 1 .5-.72c.32-.68.68-1.6.9-2.56.17-.7.25-1.36.23-1.94-.04-.15-.05-.3-.03-.45-.04-.32-.12-.6-.23-.85-.08-.17-.28-.4-.8-.6a6.8 6.8 0 0 0-2.06-.35 18.1 18.1 0 0 0-3.2.18l.04.2 1.86 7.5Zm5.65-.3c.34-.73.68-1.64.92-2.6.13.2.25.42.35.64.51 1.06.65 2.06.28 2.94a6.83 6.83 0 0 1-1.55-.98ZM16.01 29.73a15.34 15.34 0 0 1-2.76.92c.32.23.67.44 1.03.62 1.05.5 2.03.65 2.89.28a2.6 2.6 0 0 0-.19-.44c-.23-.45-.6-.95-.97-1.38Z"/>
</svg>