<svg xmlns="http://www.w3.org/2000/svg" width="70" height="17" viewBox="0 0 70 17">
  <path fill-rule="evenodd" d="m17.67.88 3.98 4.87a1 1 0 0 1 .35.75c0 .55-.46 1-1.02 1h-1.03v9h-2.04v-9h-2.05v4h-2.05v-4H8.2v4H6.14v-4H4.09v9H2.05v-9H1.02c-.4 0-.75-.22-.92-.57a.98.98 0 0 1 .12-1.05l4.1-5A1 1 0 0 1 5.11.5h11.75c.3 0 .6.14.8.38Zm1.16 4.62-2.45-3H5.6l-2.45 3h15.68Z" clip-rule="evenodd"/>
  <path d="M32.46 6.02H30c0-2.45 1.93-4.14 4.68-4.14 2.72 0 4.51 1.58 4.51 3.69 0 1.55-.76 2.51-2.9 4.56l-2.67 2.55v.05h5.75v2.11h-9.22v-1.82l4.5-4.25c1.6-1.55 1.96-2.16 1.96-3.03 0-1.02-.78-1.8-1.93-1.8-1.26 0-2.22.86-2.22 2.08Zm10.86 0h-2.46c0-2.45 1.94-4.14 4.69-4.14 2.71 0 4.5 1.58 4.5 3.69 0 1.55-.76 2.51-2.9 4.56l-2.67 2.55v.05h5.75v2.11h-9.22v-1.82l4.5-4.25c1.6-1.55 1.96-2.16 1.96-3.03 0-1.02-.78-1.8-1.92-1.8-1.27 0-2.23.86-2.23 2.08Zm13.43 9.1c2.9 0 4.9-1.82 4.9-4.5a4 4 0 0 0-4.15-4.15c-1.28 0-2.33.51-2.86 1.37h-.05l.3-3.57h6V2.16h-8.1l-.58 7.44h2.31a2.47 2.47 0 0 1 2.24-1.24c1.4 0 2.36.96 2.36 2.32 0 1.38-.97 2.34-2.37 2.34-1.22 0-2.16-.72-2.3-1.82h-2.46c.07 2.3 2.04 3.92 4.76 3.92Zm12.97-7.86a1.41 1.41 0 1 1-2.83 0c0-.8.62-1.42 1.41-1.42.78 0 1.42.63 1.42 1.42Zm0 6.27a1.41 1.41 0 1 1-2.83 0c0-.79.62-1.41 1.41-1.41.78 0 1.42.62 1.42 1.41Z"/>
</svg>